<svg id="Layer_1" data-name="Layer 1" xmlns="http://www.w3.org/2000/svg" viewBox="0 0 1080 1080"><defs><style>.cls-1{fill:#fff;}</style></defs><path class="cls-1" d="M893,422.15H716.58L481,657.84H716.42l.1,0,0,0h.08l-58.78,59.21h-.51L480.88,893.45l88-176.45-264.53-.13L10,1011.19H540.15c260.1,0,471-210.85,471-470.95h0A118.09,118.09,0,0,0,893,422.15Z"/><path class="cls-1" d="M510.5,363.3h265L1070,68.81H539.63c-260.07,0-470.91,210.83-470.91,470.91h0a118,118,0,0,0,118.05,118l176.45,0L598.78,422.15H363.05L421.9,363.3h0L598.7,186.5,510.55,363.28Z"/></svg>