<svg id="Layer_1" data-name="Layer 1" xmlns="http://www.w3.org/2000/svg" viewBox="0 0 2160 720"><defs><style>.cls-1{fill:#34b6ff;}</style></defs><g id="sekon_white" data-name="sekon white"><path class="cls-1" d="M518.81,304.72H601.9l92.33-92.34H527.94A147.66,147.66,0,0,0,380.29,360h0a37,37,0,0,0,37,37h55.33l73.86-73.86H472.58L491,304.72h0l55.43-55.44-27.64,55.43Z"/><path class="cls-1" d="M638.74,323.17H583.42l-73.87,73.9h73.87L565,415.63h-.16l-55.31,55.31,27.58-55.32-82.94,0-92.28,92.28H528.1A147.66,147.66,0,0,0,675.77,360.2h0A37,37,0,0,0,638.74,323.17Z"/><path class="cls-1" d="M948,212.14,932.7,276.6H806.79L797,320.9H912.87l-13.08,56.16H784l-14.61,65.09h125.7l-15.35,65.5H665.59l68.18-295.51Z"/><path class="cls-1" d="M1189.66,507.65h-94.81L1032.69,393.8,1008.32,415,987,507.65H899.77l68-295.51H1055l-30,113.27,133.48-113.27H1249L1099.71,349.67Z"/><path class="cls-1" d="M1478.36,323.56a205.63,205.63,0,0,1-11.78,68.4,172.88,172.88,0,0,1-34.2,58.71,167.57,167.57,0,0,1-57.19,41.9q-32.68,14.54-75.25,14.53-57.95,0-90.72-29.92t-32.78-82.37A197,197,0,0,1,1189,324.7a177.4,177.4,0,0,1,35.91-58.52q22.8-24.51,56.43-39.14t73.35-14.64q58.14,0,90.91,30T1478.36,323.56Zm-112.47,86a108.42,108.42,0,0,0,16.7-32.38q6-18.42,6-42.42,0-25.08-12-39.27t-34.26-14.19a61.2,61.2,0,0,0-27.83,6.66q-13.24,6.66-24.38,20.31-10.82,13-17.4,32.37t-6.59,43.51q0,26.82,12.31,40.46t34.1,13.64a60.76,60.76,0,0,0,29-7.45A73.62,73.62,0,0,0,1365.89,409.54Z"/><path class="cls-1" d="M1730,507.65h-65.17l-74-174.64-43.33,174.64h-86.85l68.18-295.51h85.33l61.8,142.25,32.64-142.25h89.61Z"/></g></svg>