<svg width="227" height="255" viewBox="0 0 227 255" fill="none" xmlns="http://www.w3.org/2000/svg">
<g clip-path="url(#clip0)">
<path opacity="0.18" d="M225.614 91.5278C227.241 97.9622 227.439 104.674 226.192 111.193C224.945 117.711 222.284 123.879 218.395 129.262C212.59 137.15 204.314 143.048 199.16 151.355C188.019 169.288 193.999 193.776 183.781 212.25C175.24 227.705 157.546 235.296 141.116 241.813C128.215 246.926 115.184 252.071 101.509 254.131C87.8334 256.192 73.1258 254.885 61.2759 247.782C51.5031 241.942 44.3234 232.682 37.6921 223.435C21.3912 200.686 6.65782 175.914 1.65208 148.393C-3.35367 120.871 2.89061 90.0017 23.4167 70.9609C33.4089 61.6884 46.4973 55.2942 53.5479 43.6328C60.9469 31.3982 61.0501 14.3278 72.5517 5.80229C76.7962 2.65351 82.0729 1.1918 87.3109 0.496366C99.9213 -1.12395 112.72 1.33375 123.828 7.50869C135.098 13.8127 144.348 23.8321 156.624 27.8631C172.512 33.0853 192.902 29.0737 203.462 44.5278C211.945 56.9555 221.847 77.0524 225.614 91.5278Z" fill="#68CEFD"/>
<path d="M158.01 82.7312C157.826 83.1196 157.575 83.4727 157.268 83.7744C154.809 86.3668 151.627 88.1616 148.134 88.9258C146.9 89.2094 145.639 89.352 144.373 89.3508C143.631 84.5729 142.877 79.7885 142.296 74.9913C141.838 71.2437 141.496 67.5025 141.335 63.7419C141.225 61.3852 136.11 53.1687 137.155 50.9665C138.309 48.5454 146.624 56.8326 147.56 58.4103C152.753 67.1032 154.617 73.8258 158.178 81.3017C158.312 81.7817 158.252 82.2954 158.01 82.7312Z" fill="#68CEFD"/>
<path d="M148.972 88.05C148.723 88.3735 148.442 88.6712 148.134 88.9387C146.9 89.2223 145.639 89.3648 144.373 89.3636C143.631 84.5857 142.876 79.8014 142.296 75.0042C142.515 71.2351 142.913 67.481 143.489 63.7419C143.244 65.3067 145.173 68.7195 145.695 70.252L147.96 76.9295C149.14 80.4131 151.662 84.6501 148.972 88.05Z" fill="url(#paint0_linear)"/>
<path d="M146.192 96.2214C146.708 99.3638 147.366 102.545 148.921 105.327C149.721 106.756 150.914 108.16 152.533 108.411C153.434 108.496 154.341 108.361 155.178 108.018C156.912 107.423 158.547 106.572 160.029 105.494C161.445 104.41 162.779 103.224 164.022 101.946C165.87 100.205 167.58 98.323 169.137 96.318C169.853 95.3521 170.505 94.3347 171.285 93.4139C174.511 89.5826 179.671 87.8633 183.329 84.4441C184.316 83.5297 186.315 79.3442 186.167 78.0049C184.825 77.2321 182.071 80.3423 180.587 80.793C179.104 81.2438 177.717 81.9779 176.227 82.3964C174.442 82.893 172.559 82.9175 170.763 82.4672C170.156 82.3127 169.434 72.7633 168.828 72.9823C168.522 73.11 168.249 73.3035 168.028 73.5489C166.776 74.8368 166.093 85.8285 165.054 87.258C163.628 89.1898 161.654 90.6579 159.7 92.0617C159.526 92.184 159.306 92.3128 159.113 92.2162C159.049 92.1689 158.996 92.109 158.956 92.0404C158.916 91.9718 158.89 91.8958 158.881 91.817C158.371 89.9303 157.797 88.0565 157.171 86.2084C156.733 84.9206 156.113 83.504 154.817 83.1176C153.662 82.7763 152.462 83.4267 151.43 84.0513C150.101 84.8626 148.76 85.6611 147.437 86.4789C146.702 86.9296 145.812 87.3675 145.463 88.1982C145.037 89.1962 145.399 90.5742 145.521 91.5981C145.715 93.1499 145.941 94.6889 146.192 96.2214Z" fill="#F5BCBA"/>
<path d="M157.965 183.801C157.965 185.772 157.868 187.71 157.694 189.635C156.189 206.112 148.401 221.382 135.94 232.291C123.479 243.199 107.296 248.913 90.7347 248.252C74.1736 247.591 58.4997 240.605 46.9511 228.737C35.4025 216.87 28.8616 201.028 28.6798 184.484C28.6798 184.265 28.6798 184.053 28.6798 183.84C28.5945 175.312 30.2035 166.851 33.414 158.947C36.6245 151.043 41.3727 143.852 47.384 137.792C53.3954 131.731 60.5507 126.919 68.4363 123.636C76.3219 120.352 84.7813 118.661 93.3254 118.661C101.87 118.661 110.329 120.352 118.215 123.636C126.1 126.919 133.255 131.731 139.267 137.792C145.278 143.852 150.026 151.043 153.237 158.947C156.447 166.851 158.056 175.312 157.971 183.84L157.965 183.801Z" fill="#68CEFD"/>
<path d="M157.965 183.801C157.965 185.772 157.868 187.71 157.694 189.635C142.818 199.739 120.925 206.113 96.5089 206.113C68.1258 206.113 43.1874 197.504 28.6798 184.452C28.6798 184.233 28.6798 184.02 28.6798 183.808C28.5945 175.279 30.2035 166.818 33.414 158.915C36.6245 151.011 41.3727 143.82 47.384 137.759C53.3954 131.698 60.5507 126.887 68.4363 123.603C76.3219 120.32 84.7813 118.629 93.3254 118.629C101.87 118.629 110.329 120.32 118.215 123.603C126.1 126.887 133.255 131.698 139.267 137.759C145.278 143.82 150.026 151.011 153.237 158.915C156.447 166.818 158.056 175.279 157.971 183.808L157.965 183.801Z" fill="url(#paint1_linear)"/>
<path d="M122.963 158.573C125.543 159.5 128.35 160.163 130.465 161.921C132.342 163.473 133.484 165.72 134.407 167.967C137.482 175.509 138.592 183.706 137.632 191.793C137.374 193.943 136.987 196.158 137.548 198.232C138.109 200.305 140.025 202.25 142.18 201.992C145.166 196.068 145.231 189.152 145.237 182.52C145.237 177.678 145.237 172.732 143.612 168.167C142.283 164.406 139.935 161.084 137.509 157.922C128.666 146.332 117.964 135.52 104.34 130.311C103.775 130.022 103.126 129.942 102.508 130.085C99.702 131.109 100.16 136.093 101.25 138.096C102.798 140.862 104.522 143.527 106.411 146.074C110.554 151.796 116.319 156.15 122.963 158.573Z" fill="url(#paint2_linear)"/>
<path d="M97.4507 144.02C97.489 143.153 97.6012 142.292 97.7861 141.444C97.8854 141.024 98.0985 140.638 98.4023 140.331C98.706 140.023 99.0887 139.804 99.5084 139.699C99.8628 139.69 100.216 139.657 100.566 139.603C101.282 139.384 101.586 138.553 101.792 137.838L104.082 129.854C104.521 128.308 104.966 126.685 104.63 125.121C104.101 122.674 101.85 121.019 99.6568 119.821C98.0635 118.945 96.2702 118.166 94.4962 118.495C91.7482 119.003 90.1549 121.837 89.1293 124.432C87.9356 127.212 87.2014 130.168 86.9554 133.183C86.7748 136.666 86.478 145.198 88.639 148.244C91.6321 152.52 96.9733 147.883 97.4507 144.02Z" fill="url(#paint3_linear)"/>
<path d="M132.246 133.942C138.097 135.919 144.334 136.75 149.972 139.268C150.154 139.323 150.322 139.414 150.467 139.537C150.611 139.66 150.728 139.812 150.811 139.982C150.86 140.261 150.824 140.549 150.708 140.807C145.946 154.942 143.261 169.69 142.735 184.593C146.108 185.199 149.556 185.275 152.952 184.819C153.334 184.795 153.704 184.678 154.03 184.478C154.343 184.204 154.579 183.853 154.714 183.46C160.171 171.23 165.069 158.77 169.408 146.08C170.176 143.833 170.937 141.483 170.627 139.126C170.182 135.694 167.596 132.989 165.138 130.549L145.986 111.476C145.499 110.928 144.901 110.489 144.231 110.188C143.461 109.959 142.646 109.92 141.857 110.072C134.304 111.006 123.989 111.296 110.107 110.716C108.307 110.639 117.203 120.871 117.945 122.835C118.538 124.393 120.415 126.402 121.563 127.613C124.44 130.626 128.324 132.616 132.246 133.942Z" fill="#525263"/>
<path d="M132.246 133.942C138.097 135.919 144.334 136.75 149.972 139.268C150.154 139.323 150.322 139.414 150.467 139.537C150.611 139.66 150.728 139.812 150.811 139.982C150.86 140.261 150.824 140.549 150.708 140.807C145.946 154.942 143.261 169.69 142.735 184.593C146.108 185.199 149.556 185.275 152.952 184.819C153.334 184.795 153.704 184.678 154.03 184.478C154.343 184.204 154.579 183.853 154.714 183.46C160.171 171.23 165.069 158.77 169.408 146.08C170.176 143.833 170.937 141.483 170.627 139.126C170.182 135.694 167.596 132.989 165.138 130.549L145.986 111.476C145.499 110.928 144.901 110.489 144.231 110.188C143.461 109.959 142.646 109.92 141.857 110.072C134.304 111.006 123.989 111.296 110.107 110.716C108.307 110.639 117.203 120.871 117.945 122.835C118.538 124.393 120.415 126.402 121.563 127.613C124.44 130.626 128.324 132.616 132.246 133.942Z" fill="url(#paint4_linear)"/>
<path d="M141.754 193.048C141.284 193.778 140.966 194.595 140.819 195.45C140.475 196.947 140.221 198.463 140.058 199.99C139.929 201.174 139.883 202.462 140.561 203.435C141.238 204.407 142.354 204.761 143.399 205.167C146.03 206.247 148.586 207.502 151.05 208.921C152.714 209.835 154.449 210.782 156.346 210.853C158.242 210.923 160.339 209.887 160.771 208.045C160.92 207.159 160.845 206.249 160.551 205.399C159.516 201.704 157.486 198.363 154.681 195.74C154.19 195.261 153.642 194.844 153.049 194.497C152.481 194.204 151.887 193.962 151.275 193.776C149.553 193.147 147.787 192.641 145.992 192.263C144.425 192.011 142.838 191.548 141.754 193.048Z" fill="#2E2E3F"/>
<path d="M141.754 193.048C141.284 193.778 140.966 194.595 140.819 195.45C140.475 196.947 140.221 198.463 140.058 199.99C139.929 201.174 139.883 202.462 140.561 203.435C141.238 204.407 142.354 204.761 143.399 205.167C146.03 206.247 148.586 207.502 151.05 208.921C152.714 209.835 154.449 210.782 156.346 210.853C158.242 210.923 160.339 209.887 160.771 208.045C160.92 207.159 160.845 206.249 160.551 205.399C159.516 201.704 157.486 198.363 154.681 195.74C154.19 195.261 153.642 194.844 153.049 194.497C152.481 194.204 151.887 193.962 151.275 193.776C149.553 193.147 147.787 192.641 145.992 192.263C144.425 192.011 142.838 191.548 141.754 193.048Z" fill="url(#paint5_linear)"/>
<path d="M143.67 185.076C143.181 187.624 142.926 190.21 142.909 192.803C142.909 193.943 142.986 195.205 143.805 196.023C144.581 196.638 145.569 196.921 146.553 196.809C147.74 196.765 148.911 196.523 150.017 196.094C150.263 196.018 150.485 195.88 150.662 195.695C150.793 195.512 150.883 195.303 150.927 195.083C151.911 191.397 152.433 187.603 152.482 183.789C152.544 183.191 152.42 182.588 152.127 182.063C151.514 181.206 150.243 181.245 149.211 181.451C147.89 181.733 146.595 182.128 145.341 182.629C144.154 183.042 143.909 183.853 143.67 185.076Z" fill="#F5BCBA"/>
<path d="M156.391 197.182C156.857 198.326 157.237 199.504 157.526 200.704C157.726 201.638 157.842 202.636 158.442 203.383C159.203 204.317 160.526 204.555 161.732 204.574C162.726 204.631 163.72 204.463 164.641 204.085C165.12 203.897 165.521 203.552 165.776 203.106C165.956 202.666 166.018 202.187 165.957 201.715C165.863 198.444 165.046 195.234 163.564 192.314C162.714 190.805 161.757 189.359 160.7 187.987C160.366 187.37 159.803 186.908 159.132 186.699C158.787 186.687 158.444 186.744 158.121 186.867C157.799 186.989 157.504 187.175 157.255 187.414C156.191 188.212 153.849 189.545 154.094 191.058C154.404 193.074 155.668 195.27 156.391 197.182Z" fill="#F5BCBA"/>
<path d="M164.209 199.558C163.479 199.966 162.771 200.411 162.087 200.891C161.022 201.477 159.771 201.593 158.603 201.928C158.295 201.987 158.012 202.137 157.79 202.359C157.63 202.576 157.529 202.832 157.5 203.1C157.281 204.857 157.353 206.639 157.713 208.374C158.307 212.125 158.999 215.862 159.79 219.584C160.119 221.117 160.513 222.733 161.629 223.834C162.745 224.935 164.441 225.315 166.028 225.36C167.513 225.445 168.996 225.169 170.35 224.555C171.427 223.98 172.36 223.169 173.079 222.183C173.799 221.198 174.286 220.063 174.504 218.863C174.924 216.451 174.628 213.968 173.653 211.722C172.99 210.186 172.218 208.699 171.343 207.272C170.182 205.281 169.025 203.289 167.873 201.297C166.996 199.777 166.196 198.715 164.209 199.558Z" fill="#2E2E3F"/>
<path d="M164.209 199.558C163.479 199.966 162.771 200.411 162.087 200.891C161.022 201.477 159.771 201.593 158.603 201.928C158.295 201.987 158.012 202.137 157.79 202.359C157.63 202.576 157.529 202.832 157.5 203.1C157.281 204.857 157.353 206.639 157.713 208.374C158.307 212.125 158.999 215.862 159.79 219.584C160.119 221.117 160.513 222.733 161.629 223.834C162.745 224.935 164.441 225.315 166.028 225.36C167.513 225.445 168.996 225.169 170.35 224.555C171.427 223.98 172.36 223.169 173.079 222.183C173.799 221.198 174.286 220.063 174.504 218.863C174.924 216.451 174.628 213.968 173.653 211.722C172.99 210.186 172.218 208.699 171.343 207.272C170.182 205.281 169.025 203.289 167.873 201.297C166.996 199.777 166.196 198.715 164.209 199.558Z" fill="url(#paint6_linear)"/>
<path d="M86.0523 81.6945C85.4878 83.1122 85.1105 84.5971 84.9299 86.1118C84.3162 90.034 83.9243 93.9875 83.7558 97.9536C83.4333 105.526 83.9235 113.112 83.7107 120.684C83.4913 128.559 82.5624 136.724 85.4007 144.071C85.8427 145.405 86.5892 146.617 87.5811 147.613C88.083 148.103 88.7019 148.457 89.3791 148.642C90.0564 148.827 90.7696 148.836 91.4515 148.669C92.0685 148.432 92.6224 148.056 93.0699 147.57C93.5174 147.084 93.8466 146.502 94.0318 145.868C94.3874 144.599 94.544 143.283 94.4962 141.966L94.5994 134.767C94.5994 134.619 94.5994 134.445 94.7478 134.38C94.8099 134.359 94.8766 134.354 94.9412 134.367C95.0057 134.379 95.0658 134.408 95.1155 134.451C95.6705 134.93 96.1982 135.439 96.6959 135.977C97.27 136.441 98.186 136.666 98.6956 136.132C98.8367 135.944 98.9366 135.729 98.9889 135.501C99.0411 135.272 99.0445 135.035 98.9988 134.805C98.6892 131.689 95.967 129.441 94.3479 126.756C92.0127 122.893 92.0127 118.025 92.5997 113.53C93.3286 107.902 94.851 102.41 96.3669 96.9362L97.6571 92.3064C98.6311 88.7906 99.5923 84.9528 98.1731 81.5851C97.6033 80.2916 96.7355 79.1508 95.6403 78.2556C94.5451 77.3604 93.2535 76.7361 91.8708 76.4337C89.1744 75.9379 87.0263 79.5052 86.0523 81.6945Z" fill="#F5BCBA"/>
<path d="M145.941 110.974C145.108 113.208 140.412 110.6 137.729 111.94C132.607 114.515 126.763 111.869 121.054 111.94C114.977 112.049 110.784 118.025 104.753 118.785C104.314 118.875 103.862 118.875 103.424 118.785C102.592 118.54 102.102 117.709 101.747 116.93C101.226 115.728 100.854 114.467 100.637 113.176C99.889 108.9 100.637 104.316 101.437 99.9691C102.108 96.2858 102.777 92.6004 103.443 88.9129C104.217 84.6201 104.998 80.3015 105.785 75.9572C106.244 73.0912 106.89 70.2583 107.72 67.4767C107.875 66.9938 108.036 66.5237 108.21 66.0601C109.711 62.2838 111.521 58.6375 113.623 55.1585C114.913 52.924 116.203 50.651 118.196 48.9575C120.422 47.0837 123.292 46.15 126.176 45.6992C128.769 45.2113 131.442 45.3661 133.962 46.15C135.4 46.6522 135.942 48.1719 137.084 49.1056C138.531 50.176 139.823 51.4415 140.922 52.8661C142.038 54.586 142.836 56.4923 143.276 58.494C147.321 74.1928 141.47 91.128 145.315 106.872C145.753 108.72 146.605 109.209 145.941 110.974Z" fill="#68CEFD"/>
<path d="M140.445 55.8281L140.948 59.1186L139.013 58.0432V66.7619L136.806 57.0773L138.942 53.9736L140.445 55.8281Z" fill="url(#paint7_linear)"/>
<path d="M124.06 55.6156L125.279 56.2596L127.214 57.9402L122.054 71.7588C122.054 71.7588 129.549 60.2454 129.794 54.3729C129.946 50.7606 129.495 47.1482 128.459 43.6837L124.06 55.6156Z" fill="url(#paint8_linear)"/>
<path d="M107.533 95.2234C107.124 98.3869 107.124 101.59 107.533 104.753C107.798 106.743 108.223 108.726 108.088 110.723C108.094 111.113 107.969 111.493 107.733 111.804C107.43 112.05 107.058 112.197 106.669 112.223C104.652 112.541 102.633 112.865 100.612 113.195C99.8632 108.92 100.612 104.335 101.411 99.9884C102.082 96.3051 102.751 92.6198 103.418 88.9322C104.192 84.6394 104.972 80.3208 105.759 75.9765C106.218 73.1105 106.865 70.2776 107.694 67.496C107.849 67.0131 108.01 66.543 108.185 66.0794C110.184 64.9718 112.965 64.1476 114.203 65.9377C115.493 67.8695 113.797 72.377 113.294 74.3087C111.462 81.3082 108.456 87.9985 107.533 95.2234Z" fill="url(#paint9_linear)"/>
<path d="M153.933 39.3952C154 40.1959 153.976 41.0017 153.862 41.7971C153.797 42.1936 153.599 42.5562 153.3 42.8254C153.001 43.0945 152.619 43.2542 152.217 43.2781C150.204 43.13 148.753 45.0553 147.153 46.2916C145.898 47.2305 144.408 47.8059 142.847 47.9547C141.286 48.1035 139.713 47.8199 138.303 47.1352C138.023 47.0346 137.714 47.0453 137.442 47.1652C137.169 47.285 136.953 47.5048 136.839 47.7791C136.637 48.3471 136.593 48.9587 136.71 49.5499L137.451 56.5944C137.593 57.9531 137.606 59.6144 136.452 60.3485C135.297 61.0825 133.929 60.4451 132.975 59.6144C131.474 58.1737 130.389 56.3566 129.833 54.3535C128.572 50.2952 128.391 45.9789 129.308 41.8296C130.225 37.6802 132.209 33.8408 135.065 30.6894C136.137 29.4933 137.393 28.476 138.787 27.6758C140.246 26.92 141.812 26.3923 143.431 26.1111C144.88 25.7697 146.378 25.6868 147.856 25.8664C149.841 26.2266 151.646 27.2454 152.978 28.7576C153.959 29.8265 154.913 33.0139 155.946 33.5355C155.178 35.4802 153.965 37.1994 153.933 39.3952Z" fill="#F5BCBA"/>
<path d="M138.58 11.7452C137.635 11.5243 136.647 11.5532 135.716 11.8289C133.897 12.4728 132.878 14.3724 132.22 16.1818C131.562 17.9912 131.02 19.9681 129.588 21.2495C128.356 22.357 126.608 22.8013 125.498 24.0248C124.208 25.4478 124.086 27.5535 124.208 29.4659C124.208 30.9007 124.613 32.3066 125.376 33.5226C126.06 34.4499 127.111 35.0938 127.646 36.0983C128.253 37.2509 128.459 39.0346 129.762 39.1119C130.306 39.0845 130.819 38.8547 131.201 38.468C132.518 37.3315 133.51 35.8675 134.078 34.2245C134.394 33.3101 134.6 32.2927 135.297 31.6488C135.994 31.0049 137.413 30.9663 137.729 31.8806C137.818 32.4624 137.728 33.0573 137.471 33.587C137.303 34.1537 137.374 34.9199 137.929 35.1131C138.974 33.5033 139.561 31.6102 140.799 30.1485C141.502 29.3264 142.384 28.6758 143.378 28.2464C144.371 27.817 145.45 27.6203 146.531 27.6712C147.613 27.7222 148.668 28.0195 149.617 28.5404C150.565 29.0613 151.382 29.792 152.004 30.6765C152.649 31.5973 153.088 32.692 153.991 33.3488C154.842 33.8662 155.814 34.1505 156.81 34.173C159.029 34.3919 161.377 34.4756 163.377 33.4904C165.376 32.5052 166.854 30.1163 166.086 28.0235C165.48 26.3815 163.751 25.4478 162.074 24.9198C160.397 24.3918 158.603 24.1278 157.126 23.1877C155.12 21.8998 154.049 19.6075 152.882 17.5276C151.714 15.4477 150.134 13.3099 147.798 12.8205C146.845 12.6724 145.875 12.6724 144.921 12.8205C143.991 13.0175 143.039 13.0911 142.089 13.0394C140.928 12.8012 139.806 12.0156 138.58 11.7452Z" fill="#2E2E3F"/>
<path d="M138.58 64.6563C140.054 72.1055 140.488 79.7223 139.87 87.2902C139.361 93.5878 138.148 99.8403 138.193 106.157C138.288 107.934 138.234 109.715 138.032 111.482C137.748 113.234 125.982 112.564 124.266 112.545C121.376 112.506 125.04 116.408 122.866 114.528C119.454 111.56 117.932 106.93 117.512 102.435C116.912 96.0283 118.228 89.6148 119.66 83.3365C120.654 78.99 121.712 74.6307 123.492 70.5418C125.698 65.487 129.188 59.0542 130.311 53.6517C130.472 52.8597 127.73 49.9813 128.911 50.0199C129.678 50.0199 129.317 51.2112 129.453 51.8036C129.695 52.7057 130.158 53.5334 130.801 54.2119C131.7 55.2606 132.919 55.9866 134.271 56.2789C135.142 56.4399 136.135 56.4012 136.768 57.0194C137.535 57.7663 137.413 59.2216 137.632 60.239C137.948 61.6943 138.284 63.1689 138.58 64.6563Z" fill="#F2F2F2"/>
<path d="M112.461 45.4996C109.339 46.9291 106.656 49.1442 104.121 51.4623C102.022 53.3498 100.04 55.3626 98.186 57.4894C96.5476 59.4212 95.051 61.4238 93.3222 63.2461C90.9355 65.751 87.9552 68.1721 87.4843 71.6171C87.3402 73.4135 87.6554 75.2171 88.4003 76.8587C89.0142 78.5348 89.9206 80.0891 91.0774 81.4498C92.5453 83.0707 94.4817 84.1958 96.6185 84.6694C97.2883 84.8437 97.9874 84.8744 98.6698 84.7596C99.631 84.4865 100.515 83.9925 101.25 83.3172C102.932 82.047 104.524 80.6636 106.017 79.1768C107.54 77.5992 108.83 75.8026 110.313 74.1864C111.603 72.7955 112.977 71.5399 114.268 70.1747C115.809 68.5392 117.183 66.7555 118.557 64.9718C120.501 62.5525 122.284 60.0078 123.892 57.3542C125.236 55.0124 126.303 52.5232 127.072 49.9362C127.569 48.2492 128.362 46.1113 126.647 44.8943C123.002 42.3315 116.093 43.8061 112.461 45.4996Z" fill="#68CEFD"/>
<path d="M112.461 45.4996C109.339 46.9291 106.656 49.1442 104.121 51.4623C102.022 53.3498 100.04 55.3626 98.186 57.4894C96.5476 59.4212 95.051 61.4238 93.3222 63.2461C90.9355 65.751 87.9552 68.1721 87.4843 71.6171C87.3402 73.4135 87.6554 75.2171 88.4003 76.8587C89.0142 78.5348 89.9206 80.0891 91.0774 81.4498C92.5453 83.0707 94.4817 84.1958 96.6185 84.6694C97.2883 84.8437 97.9874 84.8744 98.6698 84.7596C99.631 84.4865 100.515 83.9925 101.25 83.3172C102.932 82.047 104.524 80.6636 106.017 79.1768C107.54 77.5992 108.83 75.8026 110.313 74.1864C111.603 72.7955 112.977 71.5399 114.268 70.1747C115.809 68.5392 117.183 66.7555 118.557 64.9718C120.501 62.5525 122.284 60.0078 123.892 57.3542C125.236 55.0124 126.303 52.5232 127.072 49.9362C127.569 48.2492 128.362 46.1113 126.647 44.8943C123.002 42.3315 116.093 43.8061 112.461 45.4996Z" fill="#68CEFD"/>
<path d="M166.538 74.9011C165.84 75.341 165.341 76.0347 165.148 76.8353C164.954 77.6358 165.08 78.4803 165.499 79.1897C166.582 81.0702 168.035 82.7129 169.769 84.0191C170.802 85.1266 173.124 85.3069 175.188 84.0963C177.252 82.8858 187.102 77.5348 192.024 74.0383C192.385 73.7905 192.692 73.4719 192.926 73.1019C193.159 72.7319 193.315 72.3183 193.383 71.8863C193.452 71.4542 193.431 71.0128 193.323 70.5891C193.214 70.1653 193.021 69.7679 192.753 69.4213L188.631 64.27C188.143 63.6603 187.446 63.2522 186.675 63.1238C185.903 62.9955 185.111 63.156 184.451 63.5745L166.538 74.9011Z" fill="#3D3D54"/>
<path d="M101.07 130.401C101.797 133.068 103.088 135.549 104.856 137.677C106.791 139.931 109.423 141.541 111.952 143.073L122.602 149.545C124.164 150.441 125.658 151.451 127.072 152.565C130.562 155.437 132.878 159.442 135.129 163.357L150.662 190.382C151.449 191.767 152.553 193.331 154.146 193.28C155.004 193.169 155.811 192.811 156.468 192.25C158.461 190.852 160.603 189.262 161.196 186.899C161.609 185.25 161.196 183.518 160.7 181.883C158.313 173.827 154.572 166.242 150.817 158.701C144.853 146.767 138.8 134.857 132.659 122.97C131.027 119.815 129.046 114.902 126.35 112.584C126.35 112.584 101.295 111.064 100.663 113.543C99.2551 119.094 99.3957 124.924 101.07 130.401Z" fill="#525263"/>
<path d="M101.07 130.401C101.797 133.068 103.088 135.549 104.856 137.677C106.791 139.931 109.423 141.541 111.952 143.073L122.602 149.545C124.164 150.441 125.658 151.451 127.072 152.565C130.562 155.437 132.878 159.442 135.129 163.357L150.662 190.382C151.449 191.767 152.553 193.331 154.146 193.28C155.004 193.169 155.811 192.811 156.468 192.25C158.461 190.852 160.603 189.262 161.196 186.899C161.609 185.25 161.196 183.518 160.7 181.883C158.313 173.827 154.572 166.242 150.817 158.701C144.853 146.767 138.8 134.857 132.659 122.97C131.027 119.815 129.046 114.902 126.35 112.584C126.35 112.584 101.295 111.064 100.663 113.543C99.2551 119.094 99.3957 124.924 101.07 130.401Z" fill="url(#paint10_linear)"/>
<path d="M129.246 41.9709L125.705 43.3682L123.557 55.3645L130.698 55.0426L129.246 41.9709Z" fill="#68CEFD"/>
<path d="M136.742 54.7528C136.742 55.2937 136.742 55.8346 136.742 56.3755C136.742 56.61 136.755 56.8443 136.781 57.0774C136.819 57.314 136.871 57.5483 136.935 57.7792L137.826 61.2822L138.193 55.5899C139.245 56.0986 140.322 56.5622 141.419 56.9679C141.336 56.1148 141.118 55.2802 140.774 54.4952C140.128 52.8468 139.535 51.1919 138.838 49.5757C138.676 49.1439 138.44 48.7432 138.142 48.3908C137.991 48.2161 137.802 48.0786 137.59 47.9892C137.377 47.8998 137.146 47.861 136.916 47.8757C136.271 48.1461 136.677 50.5609 136.684 51.0953L136.742 54.7528Z" fill="#68CEFD"/>
<path d="M188.928 72.0808L175.82 80.3552C175.59 80.4789 175.325 80.5209 175.069 80.4741C174.812 80.4272 174.579 80.2944 174.407 80.0976L170.24 75.4098C170.155 75.33 170.088 75.2318 170.046 75.1226C170.004 75.0134 169.987 74.8961 169.997 74.7795C170.007 74.6629 170.044 74.5501 170.104 74.4496C170.164 74.3491 170.246 74.2635 170.344 74.1993L183.477 65.9313C183.707 65.8075 183.972 65.7656 184.229 65.8124C184.486 65.8592 184.719 65.992 184.89 66.1889L189.057 70.8702C189.141 70.9518 189.206 71.0516 189.246 71.1619C189.286 71.2722 189.301 71.3902 189.288 71.5069C189.276 71.6235 189.237 71.7358 189.174 71.8353C189.112 71.9347 189.028 72.0187 188.928 72.0808Z" fill="#68CEFD"/>
</g>
<defs>
<linearGradient id="paint0_linear" x1="130.607" y1="76.7556" x2="157.081" y2="76.3485" gradientUnits="userSpaceOnUse">
<stop offset="0.01"/>
<stop offset="0.13" stop-opacity="0.69"/>
<stop offset="1" stop-opacity="0"/>
</linearGradient>
<linearGradient id="paint1_linear" x1="49593.7" y1="7521.53" x2="24640.4" y2="46043.1" gradientUnits="userSpaceOnUse">
<stop offset="0.01"/>
<stop offset="0.13" stop-opacity="0.69"/>
<stop offset="1" stop-opacity="0"/>
</linearGradient>
<linearGradient id="paint2_linear" x1="13545.6" y1="15017.3" x2="7640.53" y2="18858.6" gradientUnits="userSpaceOnUse">
<stop offset="0.01"/>
<stop offset="0.13" stop-opacity="0.69"/>
<stop offset="1" stop-opacity="0"/>
</linearGradient>
<linearGradient id="paint3_linear" x1="3119.33" y1="6207.06" x2="5801.41" y2="7161.56" gradientUnits="userSpaceOnUse">
<stop offset="0.01"/>
<stop offset="0.13" stop-opacity="0.69"/>
<stop offset="1" stop-opacity="0"/>
</linearGradient>
<linearGradient id="paint4_linear" x1="13903.9" y1="17723.8" x2="19640.3" y2="17723.8" gradientUnits="userSpaceOnUse">
<stop offset="0.01"/>
<stop offset="0.13" stop-opacity="0.69"/>
<stop offset="1" stop-opacity="0"/>
</linearGradient>
<linearGradient id="paint5_linear" x1="6641.89" y1="6300.3" x2="6107.8" y2="6148.68" gradientUnits="userSpaceOnUse">
<stop offset="0.01"/>
<stop offset="0.13" stop-opacity="0.69"/>
<stop offset="1" stop-opacity="0"/>
</linearGradient>
<linearGradient id="paint6_linear" x1="5358.43" y1="8949.42" x2="5824.17" y2="8949.42" gradientUnits="userSpaceOnUse">
<stop offset="0.01"/>
<stop offset="0.13" stop-opacity="0.69"/>
<stop offset="1" stop-opacity="0"/>
</linearGradient>
<linearGradient id="paint7_linear" x1="965.862" y1="1090.47" x2="1147.04" y2="1139.28" gradientUnits="userSpaceOnUse">
<stop offset="0.01"/>
<stop offset="0.13" stop-opacity="0.69"/>
<stop offset="1" stop-opacity="0"/>
</linearGradient>
<linearGradient id="paint8_linear" x1="2257.81" y1="2440.73" x2="1802.62" y2="2490.63" gradientUnits="userSpaceOnUse">
<stop offset="0.01"/>
<stop offset="0.13" stop-opacity="0.69"/>
<stop offset="1" stop-opacity="0"/>
</linearGradient>
<linearGradient id="paint9_linear" x1="2809.04" y1="7057.13" x2="3722.82" y2="7047.71" gradientUnits="userSpaceOnUse">
<stop offset="0.01"/>
<stop offset="0.13" stop-opacity="0.69"/>
<stop offset="1" stop-opacity="0"/>
</linearGradient>
<linearGradient id="paint10_linear" x1="14991.5" y1="20300.3" x2="19681.1" y2="18801.9" gradientUnits="userSpaceOnUse">
<stop offset="0.01"/>
<stop offset="0.13" stop-opacity="0.69"/>
<stop offset="1" stop-opacity="0"/>
</linearGradient>
<clipPath id="clip0">
<rect width="227" height="255" fill="white"/>
</clipPath>
</defs>
</svg>
