<svg width="296" height="271" viewBox="0 0 296 271" fill="none" xmlns="http://www.w3.org/2000/svg">
<g clip-path="url(#clip0)">
<path opacity="0.7" d="M255.474 136.111C248.995 143.314 240.811 148.877 234.715 156.416C226.606 166.446 222.544 179.514 216.367 190.758C214.823 193.601 213.069 196.325 211.12 198.908C209.044 201.654 206.63 204.127 203.936 206.268C192.224 215.481 176.053 216.456 161.246 214.898C146.822 213.389 132.432 209.856 118.001 210.961L116.837 211.057C110.378 211.667 103.954 213.231 97.5503 214.59C89.126 216.373 80.736 217.807 72.3528 216.243C67.1888 215.243 62.2991 213.145 58.0138 210.09C53.7284 207.036 50.1471 203.096 47.5115 198.537C41.772 188.432 41.1556 176.18 36.3613 165.609C33.1012 158.413 28.0056 152.197 24.4167 145.159C20.5093 137.362 18.4927 128.752 18.5308 120.028C18.5689 111.304 20.6605 102.712 24.6358 94.9501C29.3206 85.9978 36.3613 78.5477 43.3131 71.228L64.3189 49.1043C71.1679 41.9013 78.2224 34.5336 87.2083 30.3146C93.9978 27.1951 101.521 26.0311 108.933 26.9532C114.96 27.6392 119.59 31.1447 124.789 33.0724C125.846 33.4779 126.934 33.7968 128.042 34.0259C134.364 35.3293 141.199 33.5457 147.904 34.4993C148.431 34.5679 148.952 34.6639 149.473 34.7737C156.808 36.324 163.855 39.315 170.526 42.649C183.313 49.0083 195.717 56.8425 209.757 59.4699C221.634 61.6857 234.291 60.0736 245.502 64.5669C258.598 69.8012 267.611 83.1989 269.056 97.2414C270.501 111.284 264.919 125.608 255.474 136.111Z" fill="white"/>
<path d="M200.806 175.426L198.066 176.503C198.066 176.503 199.73 176.647 202.333 181.709C204.936 186.772 211.75 202.591 211.476 204.608C211.476 204.608 213.997 204.499 214.483 203.339C214.497 203.339 207.648 181.606 200.806 175.426Z" fill="#68CEFD"/>
<path d="M200.806 175.426L198.066 176.503C198.066 176.503 199.73 176.647 202.333 181.709C204.936 186.772 211.75 202.591 211.476 204.608C211.476 204.608 213.997 204.499 214.483 203.339C214.497 203.339 207.648 181.606 200.806 175.426Z" fill="url(#paint0_linear)"/>
<path d="M110.262 111.833C110.262 111.833 101.221 125.965 98.7146 124.956C96.2079 123.948 96.5367 109.816 96.5367 109.816L107.406 98.6546L110.262 111.833Z" fill="url(#paint1_linear)"/>
<path d="M110.522 113.946C110.522 113.946 106.707 125.32 102.269 126.911C97.8311 128.503 94.2901 138.436 95.9681 141.194L98.7077 145.694L102.372 142.6C102.372 142.6 98.605 137.702 100.845 134.272C103.755 129.82 102.283 133.943 106.18 128.955C110.077 123.968 111.091 120.422 111.091 120.422L110.522 113.946Z" fill="#484756"/>
<path d="M92.9203 173.971C91.982 176.557 91.1944 179.61 92.6874 181.922C93.6737 183.452 95.427 184.268 97.1051 184.968C104.309 187.966 111.783 190.263 119.426 191.828C121.172 192.192 123.241 192.432 124.522 191.19C125.117 190.513 125.544 189.704 125.768 188.83L131.309 172.537C135.055 161.561 138.843 150.455 144.569 140.343C145.569 138.573 146.671 136.598 146.192 134.615C145.76 132.804 144.048 131.514 142.247 131.041C137.179 129.669 131.028 131.535 125.754 131.178C122.837 130.979 119.59 130.279 116.947 131.864C113.303 134.032 111.111 139.41 108.961 142.84C106.043 147.533 103.194 152.266 100.577 157.13C97.6142 162.547 95.0549 168.176 92.9203 173.971Z" fill="#68CEFD"/>
<path d="M144.569 140.371C138.836 150.482 135.055 161.561 131.309 172.565C129.912 176.681 128.51 180.797 127.104 184.913L125.734 188.844C125.51 189.718 125.083 190.527 124.487 191.204C124.122 191.552 123.678 191.806 123.193 191.945C121.936 192.215 120.632 192.18 119.392 191.842C111.749 190.277 104.275 187.979 97.0709 184.982C95.3929 184.296 93.6464 183.466 92.6533 181.936C92.2522 181.315 91.9948 180.611 91.8999 179.878C91.6054 177.964 92.2081 175.844 92.8861 173.964C95.0222 168.181 97.5816 162.563 100.543 157.157C103.16 152.293 106.023 147.553 108.926 142.868C111.077 139.403 113.269 134.053 116.912 131.892C119.577 130.307 122.803 131.007 125.72 131.206C130.994 131.562 137.144 129.724 142.213 131.068C144.014 131.542 145.726 132.831 146.158 134.643C146.671 136.625 145.569 138.601 144.569 140.371Z" fill="url(#paint2_linear)"/>
<path d="M124.522 191.217C123.241 192.459 121.172 192.219 119.426 191.855C117.337 191.43 115.255 190.943 113.193 190.401C107.711 188.966 102.335 187.151 97.105 184.968C96.5503 184.735 95.9818 184.495 95.4476 184.206C94.3491 183.701 93.4039 182.912 92.708 181.922C92.307 181.301 92.0496 180.598 91.9546 179.864L92.8998 179.398C94.6428 179.138 96.4052 179.033 98.1666 179.082C102.478 179.096 106.73 180.095 110.598 182.004C111.33 182.389 112.043 182.78 112.734 183.171C116.882 185.516 120.825 188.208 124.522 191.217Z" fill="url(#paint3_linear)"/>
<path d="M128.33 190.353C128.871 191.807 129.562 193.365 130.946 194.078C132.055 194.661 133.384 194.565 134.638 194.435C141.642 193.74 148.598 192.618 155.465 191.073C155.835 191.021 156.185 190.872 156.479 190.641C156.813 190.211 156.968 189.667 156.91 189.125C157.109 179.377 156.554 169.519 158.568 159.977C159.369 156.197 160.568 152.492 160.965 148.651C161.691 141.315 159.487 133.989 154.835 128.276C154.57 127.889 154.196 127.591 153.76 127.419C153.161 127.341 152.553 127.474 152.041 127.796C146.514 130.369 140.309 130.355 134.343 130.293C130.069 130.245 124.665 129.113 124.282 134.594C123.467 146.181 122.864 158.317 123.912 169.917C124.477 176.894 125.963 183.766 128.33 190.353Z" fill="#68CEFD"/>
<path d="M160.986 148.651C160.588 152.492 159.39 156.197 158.589 159.977C156.575 169.519 157.13 179.377 156.931 189.125C156.961 189.576 156.869 190.026 156.664 190.429C156.621 190.508 156.566 190.58 156.5 190.641C156.205 190.872 155.856 191.021 155.486 191.073C148.618 192.618 141.663 193.74 134.658 194.435C133.405 194.565 132.076 194.661 130.967 194.078C129.597 193.392 128.912 191.807 128.35 190.353C125.983 183.766 124.498 176.894 123.933 169.917C122.885 158.317 123.487 146.181 124.302 134.594C124.686 129.106 130.09 130.245 134.364 130.293C140.329 130.355 146.534 130.369 152.061 127.796C152.573 127.474 153.181 127.341 153.781 127.419C154.217 127.591 154.591 127.889 154.856 128.276C155.15 128.633 155.431 128.962 155.698 129.36C159.78 134.915 161.663 141.787 160.986 148.651Z" fill="url(#paint4_linear)"/>
<path d="M145 130.821C145 130.821 146.425 143.554 155.102 144.329L153.671 129.141L145 130.821Z" fill="url(#paint5_linear)"/>
<path d="M156.931 189.125C156.931 189.18 156.931 190.415 154.376 190.888C154.109 190.936 153.815 190.977 153.493 191.005C150.02 191.327 135.144 194.078 135.144 194.078C135.144 194.078 130.288 195.217 129.905 192.144C129.905 192.144 131.877 191.416 134.829 190.573C139.884 189.125 147.842 187.328 153.712 188.24C154.817 188.403 155.898 188.7 156.931 189.125Z" fill="url(#paint6_linear)"/>
<path d="M139.603 57.8509C139.528 58.091 139.11 57.9538 139.089 57.7C139.069 57.4462 139.288 57.2472 139.48 57.0895C142.39 54.7924 146.06 53.6823 149.753 53.9818C150.459 53.9929 151.146 54.2072 151.733 54.5993C152.225 55.0519 152.601 55.6166 152.829 56.2457C157.941 67.6901 161.819 79.6487 164.397 91.918C164.883 94.223 165.581 96.8778 167.732 97.8177C170.026 98.8261 172.78 97.1317 173.793 94.8335C174.807 92.5354 174.533 89.908 174.156 87.4315C173.132 80.3472 171.238 73.4165 168.52 66.7965C166.479 62.0218 163.944 57.4805 161.89 52.7608C159.835 48.041 157.732 42.7313 153.315 39.9462C148.897 37.161 143.425 37.6137 138.391 38.5741C134.035 39.4042 129.131 41.1192 127.624 45.2901C126.405 48.6653 128.028 52.5687 130.727 54.8942C133.425 57.2198 136.994 58.3243 140.5 59.0446C141.583 59.3357 142.715 59.3965 143.822 59.2229" fill="#484756"/>
<path d="M148.253 45.4411C150.377 45.64 152.609 46.0653 154.185 47.4991C155.129 48.4685 155.884 49.6062 156.411 50.8537C162.855 63.9632 167.198 77.9921 171.519 91.9523C172.252 94.3328 172.978 96.967 171.992 99.2514C171.074 101.357 168.924 102.62 166.855 103.614C163.127 105.411 159.225 106.825 155.212 107.833C154.701 108.078 154.114 108.112 153.578 107.927C153.043 107.742 152.601 107.354 152.349 106.846C149.027 102.263 146.829 96.9807 144.671 91.7534L130.638 57.8303C129.864 55.9575 127.7 52.7127 127.658 50.6684C127.611 48.2057 129.542 47.8284 131.713 47.1492C137.058 45.4839 142.681 44.9032 148.253 45.4411Z" fill="#25233A"/>
<path d="M97.7078 68.8408C95.1368 75.9013 93.1081 83.1484 91.6396 90.5186C91.5096 90.8512 91.4483 91.2067 91.4594 91.5637C91.4705 91.9208 91.5538 92.2718 91.7043 92.5957C91.8548 92.9195 92.0692 93.2094 92.3348 93.4478C92.6003 93.6863 92.9113 93.8683 93.2491 93.9829L99.7077 98.0509C101.077 98.9153 102.982 99.7522 104.187 98.6615C104.975 97.9755 105.023 96.7475 105.002 95.6842C104.892 87.603 104.573 79.5287 104.043 71.4613C103.913 69.513 104.94 62.4335 102.475 61.768C100.009 61.1026 98.3653 67.0434 97.7078 68.8408Z" fill="#68CEFD"/>
<path d="M118.214 54.6679C113.755 55.052 109.029 55.6832 105.577 58.5301C104.503 59.4388 103.556 60.4887 102.762 61.6514C99.71 66.0064 98.1788 71.2491 98.4064 76.5652C98.5982 80.6332 99.8173 84.5777 101.03 88.4674C103.509 96.4182 105.988 104.376 108.844 112.203C110.899 117.931 110.961 126.829 115.091 131.315C116.392 132.722 120.227 130.904 121.994 131.658C124.275 132.632 126.83 132.66 129.309 132.584C135.814 132.377 142.284 131.529 148.623 130.053C150.185 129.683 154.103 129.683 154.856 128.276C155.335 127.405 156.061 127.069 156.061 126.074C156.102 113.177 152.705 99.0456 151.596 86.1899C150.911 78.5134 150 70.6106 146.226 63.8946C142.452 57.1786 135.179 51.8827 127.501 52.7745C124.775 53.1038 120.94 54.4278 118.214 54.6679Z" fill="#68CEFD"/>
<path d="M156.061 126.074C156.061 127.069 155.335 127.405 154.856 128.276C154.566 128.693 154.143 128.998 153.657 129.141C152.236 129.543 150.78 129.807 149.308 129.93C149.062 129.964 148.836 130.005 148.623 130.046C142.284 131.522 135.814 132.37 129.309 132.578C126.83 132.653 116.392 132.715 115.091 131.308C110.981 126.822 110.933 117.925 108.844 112.196C105.988 104.369 103.509 96.4182 101.03 88.4605C99.8173 84.5709 98.5982 80.6263 98.4064 76.5583C98.1788 71.2422 99.71 65.9995 102.762 61.6445C103.556 60.4818 104.503 59.4319 105.577 58.5232C107.193 57.236 109.059 56.3013 111.057 55.7792C113.395 55.1788 115.784 54.7999 118.193 54.6473C120.933 54.4072 124.755 53.0695 127.48 52.7539C128.474 52.6375 129.477 52.6237 130.473 52.7127C132.548 52.9128 134.568 53.4942 136.432 54.4277C138.359 55.3801 140.13 56.6199 141.685 58.1047C143.473 59.788 144.994 61.7333 146.199 63.8741C149.973 70.5901 150.911 78.4929 151.568 86.1693C152.705 99.0662 156.102 113.177 156.061 126.074Z" fill="url(#paint7_linear)"/>
<path d="M156.061 126.074C156.061 127.069 155.335 127.405 154.856 128.276C154.566 128.693 154.143 128.998 153.657 129.141L149.308 129.936L148.623 130.053L145.664 83.9741L129.645 72.3119C129.645 72.3119 125.015 65.692 122.7 65.692C120.385 65.692 113.296 61.1575 113.296 61.1575C111.31 61.3496 105.762 79.2132 105.762 79.2132L107.653 59.4493L111.077 55.7792L115.091 52.6579L127.501 52.7539L130.494 52.7127L134.432 52.6579L136.487 54.4278L139.507 57.0689L141.74 58.1048C143.527 59.7881 145.049 61.7333 146.253 63.8741C150.027 70.5901 150.966 78.4929 151.623 86.1693C152.705 99.0662 156.102 113.177 156.061 126.074Z" fill="url(#paint8_linear)"/>
<path d="M152.219 111.099C152.219 111.099 160.116 106.983 163.068 100.98L165.253 102.736C165.253 102.736 158.321 113.946 152.534 113.946C146.747 113.946 152.219 111.099 152.219 111.099Z" fill="#484756"/>
<path d="M126.22 56.8288C120.631 65.9184 117.727 77.2924 120.296 87.6511C122.186 95.2451 127.439 101.536 133.069 106.962C135.576 109.377 138.233 111.709 141.35 113.253C144.466 114.796 148.137 115.475 151.466 114.474C152.582 114.138 153.849 113.102 153.37 112.059C153.103 111.62 152.698 111.282 152.219 111.099C146.637 108.238 140.815 105.22 137.151 100.123C134.371 96.2536 133.042 91.527 132.179 86.8484C130.658 78.9251 130.22 70.3225 133.96 63.1743C135.829 59.5934 138.713 56.4446 139.528 52.4864C139.576 52.2394 131.932 50.2088 131.042 50.4284C128.638 51.1212 127.432 54.8462 126.22 56.8288Z" fill="#25233A"/>
<path d="M97.7626 69.122C95.023 82.5815 100.235 110.914 109.406 113.946C109.618 112.484 105.933 98.7163 105.618 87.1571C105.009 64.5807 113.207 57.261 113.31 55.2853C113.358 54.3043 109.947 52.7402 105.625 55.6351C101.002 58.729 98.879 63.8192 97.7626 69.122Z" fill="#25233A"/>
<path d="M128.015 77.361C127.142 86.7551 126.867 96.1953 127.193 105.624C132.439 98.8192 133.398 89.7365 134.158 81.1752C136.049 81.5711 137.87 82.2462 139.562 83.1783C140.407 83.6503 141.138 84.3022 141.703 85.0881C142.269 85.874 142.656 86.7746 142.836 87.7265C142.98 88.7898 145.856 90.6489 145.651 91.6916C144.356 98.2018 134.775 113.582 132.734 115.551C129.261 118.878 125.837 120.202 122.59 116.655C119.344 113.109 118.33 108.08 117.851 103.299C117.312 97.945 117.273 92.5525 117.734 87.1914C117.734 87.5276 115.536 84.7904 115.399 84.3582C114.885 82.7598 115.138 80.9282 115.303 79.2818C115.591 76.5378 115.864 73.0391 117.44 70.6518C118.899 68.436 121.138 67.8186 123.659 68.6624C127.645 70.0001 128.371 73.6016 128.015 77.361Z" fill="url(#paint9_linear)"/>
<path d="M91.4957 101.001C92.5505 93.194 94.2764 89.1534 95.3312 81.3535C95.6531 78.9593 96.0161 76.4417 97.4886 74.4934C98.9612 72.5452 101.899 71.5505 103.845 72.9842C105.283 74.0338 105.701 75.9752 106.009 77.7314C106.564 80.2481 106.794 82.8256 106.694 85.401C106.488 87.9666 105.543 90.5734 103.612 92.261C102.883 92.7753 102.233 93.3922 101.68 94.0927C101.269 94.8757 101.05 95.746 101.043 96.6309C100.427 104.863 101.769 113.143 100.899 121.327C100.742 122.829 100.215 124.654 98.7146 124.915C98.2494 124.936 97.7851 124.857 97.3536 124.682C96.9221 124.506 96.5336 124.24 96.2147 123.9C93.1327 121.21 91.5711 117.108 91.1738 113.033C90.743 109.012 90.8512 104.952 91.4957 100.96" fill="url(#paint10_linear)"/>
<path d="M196.395 192.782C196.304 193.223 196.062 193.618 195.71 193.9C183.334 205.877 169.91 217.457 153.705 223.268C151.767 223.954 149.596 224.578 147.671 223.892C145.322 223.069 136.959 203.634 135.172 194.078C135.069 193.536 134.987 193.028 134.932 192.562C134.846 191.905 134.821 191.241 134.857 190.579C139.911 189.132 147.87 187.335 153.74 188.247L153.911 188.858C153.911 188.933 153.945 189.002 153.959 189.077C154.096 189.688 154.246 190.291 154.404 190.895C154.774 192.342 155.192 193.776 155.644 195.196C156.073 196.568 156.55 197.913 157.075 199.23C157.213 199.736 157.517 200.18 157.938 200.492C158.568 200.863 159.363 200.588 160.034 200.3C170.39 195.892 180.26 190.415 189.484 183.959C189.879 183.6 190.397 183.408 190.93 183.424C191.525 183.52 191.902 184.11 192.197 184.652C193.489 187.017 194.786 189.381 196.087 191.746C196.282 192.056 196.389 192.415 196.395 192.782Z" fill="url(#paint11_linear)"/>
<path d="M116.207 185.215C115.995 186.271 113.625 189.427 113.193 190.401C111.865 193.406 109.721 196.109 108.194 199.058C106.674 202.243 105.525 205.592 104.769 209.04C102.76 216.934 100.993 224.88 99.468 232.879C98.1576 239.711 97.0161 246.571 96.0435 253.459C92.9483 252.832 89.9434 251.82 87.0987 250.447C86.4376 250.181 85.8468 249.766 85.3728 249.233C84.7221 248.389 84.6879 247.23 84.6879 246.16C84.7899 235.653 85.5585 225.163 86.9891 214.754C88.2493 206.083 89.9753 197.357 93.3998 189.269C93.8518 188.206 94.571 186.244 95.4545 184.206C96.0297 182.844 96.6861 181.518 97.4201 180.234C97.6599 179.83 97.8996 179.459 98.1461 179.116C102.458 179.13 106.709 180.13 110.577 182.039C111.31 182.423 112.022 182.814 112.714 183.205C113.262 183.548 116.207 185.215 116.207 185.215Z" fill="url(#paint12_linear)"/>
<path d="M198.08 176.503C198.333 176.326 198.644 176.253 198.95 176.297C199.251 176.414 199.496 176.642 199.635 176.935C204.459 184.918 208.338 193.436 211.196 202.317C211.524 203.353 211.819 204.574 211.196 205.445C210.793 205.917 210.247 206.242 209.641 206.371C206.162 207.304 202.662 205.219 199.662 203.229L191.32 197.7C192.121 198.228 192.395 191.807 192.292 191.3C191.779 188.768 190.08 187.047 189.121 184.755C187.087 180.015 194.683 178.245 198.08 176.503Z" fill="#68CEFD"/>
<path d="M87.5233 249.466C90.2629 251.648 94.2285 250.626 97.5297 249.507C99.011 253.69 100.125 257.994 100.858 262.37C101.081 263.194 101.043 264.066 100.749 264.867C100.271 265.639 99.5467 266.226 98.694 266.534C90.4341 270.465 80.9757 270.767 71.8323 270.993C71.2729 271.046 70.7088 270.982 70.1748 270.808C68.3598 270.074 68.4968 267.44 69.2023 265.615C71.209 260.415 75.2294 257.973 78.4552 253.802C79.5785 252.347 80.3045 250.694 81.5852 249.336C84.0029 246.784 85.0714 247.504 87.5233 249.466Z" fill="#68CEFD"/>
<path d="M198.08 176.503C198.333 176.326 198.644 176.253 198.95 176.297C199.251 176.414 199.496 176.642 199.635 176.935C204.459 184.918 208.338 193.436 211.196 202.317C211.524 203.353 211.819 204.574 211.196 205.445C210.793 205.917 210.247 206.242 209.641 206.371C206.162 207.304 202.662 205.219 199.662 203.229L191.32 197.7C192.121 198.228 192.395 191.807 192.292 191.3C191.779 188.768 190.08 187.047 189.121 184.755C187.087 180.015 194.683 178.245 198.08 176.503Z" fill="url(#paint13_linear)"/>
<path d="M100.749 264.867C100.271 265.639 99.5467 266.226 98.694 266.534C90.4341 270.465 80.9756 270.767 71.8322 270.993C71.2729 271.046 70.7088 270.982 70.1748 270.808C68.8735 270.28 68.579 268.75 68.805 267.302C68.8798 266.724 69.0247 266.158 69.2365 265.615C71.2432 260.415 75.2636 257.973 78.4895 253.802C79.6127 252.347 80.3387 250.694 81.6195 249.336C84.0303 246.784 85.0988 247.504 87.5507 249.466C90.2903 251.648 94.2559 250.626 97.5571 249.507C98.9478 253.46 100.008 257.521 100.728 261.65C100.776 261.89 100.817 262.13 100.858 262.37C101.081 263.194 101.043 264.066 100.749 264.867Z" fill="url(#paint14_linear)"/>
<path d="M83.4345 49.3993C74.0969 57.7672 64.0658 65.3245 53.4495 71.9895L52.9016 72.3188C52.5219 72.591 52.0853 72.7732 51.625 72.8516C51.1646 72.93 50.6925 72.9027 50.2442 72.7716C49.3949 72.4148 48.9566 71.5024 48.5731 70.6655C42.0939 56.5475 29.163 46.4632 23.9578 31.6798C33.9231 24.1268 46.6896 18.8034 57.6343 12.6294C58.5589 12.108 59.5931 11.5729 60.6204 11.7033C60.7128 11.7126 60.8044 11.7286 60.8944 11.7513C61.9902 12.0257 62.7162 13.0273 63.3395 13.9602C70.8905 25.2674 77.6067 37.1119 83.4345 49.3993Z" fill="#68CEFD"/>
<path d="M83.4346 49.3993C74.097 57.7672 64.0659 65.3245 53.4496 71.9895L52.9017 72.3188C52.7845 72.2926 52.6699 72.2559 52.5593 72.209C51.71 71.8523 51.2717 70.9331 50.8881 70.0961C44.409 55.985 31.4781 45.9007 26.2797 31.1516C36.245 23.6055 49.0115 18.2341 59.9562 12.1012C60.1754 11.9777 60.4014 11.8542 60.6411 11.7444C60.7334 11.7538 60.825 11.7698 60.9151 11.7925C62.0109 12.0669 62.7369 13.0684 63.3601 14.0014C70.9023 25.2959 77.6116 37.1267 83.4346 49.3993Z" fill="url(#paint15_linear)"/>
<path d="M0.0684781 150.606C0.0123988 150.501 -0.0043759 150.379 0.0211728 150.262C0.0467215 150.146 0.112917 150.043 0.207852 149.971C0.302787 149.899 0.420234 149.863 0.539067 149.87C0.6579 149.877 0.770322 149.926 0.856114 150.009C5.65041 154.811 16.0883 169.128 16.3143 169.574C16.4603 169.826 16.5101 170.123 16.4548 170.409C16.3994 170.695 16.2424 170.952 16.0129 171.131C13.8829 172.4 8.04756 163.167 7.02706 161.74C4.47148 158.182 2.14715 154.463 0.0684781 150.606Z" fill="#68CEFD"/>
<path d="M19.2799 136.165C18.9717 135.596 19.7114 135.205 22.0743 137.599C38.0461 153.796 36.3544 154.633 34.5668 154.887C33.4505 155.058 31.8272 152.369 31.2656 151.717C28.6082 148.459 20.3757 138.203 19.2799 136.165Z" fill="#68CEFD"/>
<path d="M0.0684781 150.606C0.0123988 150.501 -0.0043759 150.379 0.0211728 150.262C0.0467215 150.146 0.112917 150.043 0.207852 149.971C0.302787 149.899 0.420234 149.863 0.539067 149.87C0.6579 149.877 0.770322 149.926 0.856114 150.009C5.65041 154.811 16.0883 169.128 16.3143 169.574C16.4603 169.826 16.5101 170.123 16.4548 170.409C16.3994 170.695 16.2424 170.952 16.0129 171.131C13.8829 172.4 8.04756 163.167 7.02706 161.74C4.47148 158.182 2.14715 154.463 0.0684781 150.606Z" fill="url(#paint16_linear)"/>
<path d="M19.2799 136.165C18.9717 135.596 19.7114 135.205 22.0743 137.599C38.0461 153.796 36.3544 154.633 34.5668 154.887C33.4505 155.058 31.8272 152.369 31.2656 151.717C28.6082 148.459 20.3757 138.203 19.2799 136.165Z" fill="url(#paint17_linear)"/>
<path d="M50.9359 161.369C49.3401 163.88 46.8608 165.671 44.4636 167.434C41.2289 169.755 38.1303 172.26 35.1833 174.939C33.7731 176.385 32.2195 177.684 30.5465 178.814C29.1179 179.667 27.5291 180.216 25.8793 180.426C24.2294 180.636 22.5541 180.503 20.9579 180.036C18.4375 179.281 15.0267 177.182 14.0404 174.547C13.9931 174.418 13.9542 174.285 13.924 174.15C13.335 171.406 17.232 169.258 19.2251 167.859C24.1053 164.449 28.5734 160.482 32.5395 156.039C33.2612 155.112 34.1599 154.338 35.1833 153.762C36.0699 153.395 37.0128 153.184 37.9708 153.137L48.7785 151.985C49.3418 151.87 49.9259 151.918 50.4634 152.122C50.7339 152.269 50.968 152.476 51.1483 152.726C51.2069 152.798 51.2617 152.874 51.3126 152.952C53.0317 155.401 52.5249 158.859 50.9359 161.369Z" fill="#68CEFD"/>
<path d="M50.9359 161.369C49.3401 163.88 46.8608 165.671 44.4636 167.434C41.2289 169.755 38.1303 172.26 35.1833 174.939C33.7731 176.385 32.2195 177.684 30.5465 178.814C29.1179 179.667 27.5291 180.216 25.8793 180.426C24.2294 180.636 22.5541 180.503 20.9579 180.036C18.4375 179.281 15.0267 177.182 14.0404 174.547C13.9931 174.418 13.9542 174.285 13.924 174.15C13.335 171.406 17.232 169.258 19.2251 167.859C24.1053 164.449 28.5734 160.482 32.5395 156.039C33.2612 155.112 34.1599 154.338 35.1833 153.762C36.0699 153.395 37.0128 153.184 37.9708 153.137L48.7785 151.985C49.3418 151.87 49.9259 151.918 50.4634 152.122C50.7339 152.269 50.968 152.476 51.1483 152.726C51.2069 152.798 51.2617 152.874 51.3126 152.952C53.0317 155.401 52.5249 158.859 50.9359 161.369Z" fill="url(#paint18_linear)"/>
<path d="M51.1757 152.726C50.8949 152.959 50.6552 153.158 50.4908 153.329C46.7239 156.945 42.8816 160.491 39.1968 164.189C37.3917 166.026 35.43 167.701 33.3341 169.197C27.7042 172.963 20.8004 173.841 13.9514 174.17C13.3624 171.426 17.2595 169.279 19.2526 167.88C24.1328 164.469 28.6009 160.503 32.567 156.06C33.2787 155.128 34.168 154.347 35.1833 153.762C36.07 153.395 37.0129 153.184 37.9709 153.137L48.7786 151.985C49.3419 151.87 49.926 151.918 50.4634 152.122C50.7439 152.266 50.9877 152.472 51.1757 152.726Z" fill="#68CEFD"/>
<path d="M133.247 45.3725C132.371 46.1614 130.74 47.1012 129.391 48.1165C128.615 48.6363 127.947 49.3027 127.426 50.0785C126.652 51.4985 126.802 53.927 126.611 54.613C125.056 60.101 121.864 61.9532 119.433 61.72C119.149 61.6976 118.868 61.6424 118.597 61.5554C114.638 60.2794 113.152 55.5597 112.228 51.4985C111.303 47.4373 110.372 43.2664 109.44 39.1504C108.584 35.3705 107.721 31.5632 107.632 27.6872C107.543 23.8113 108.269 19.8256 110.372 16.5739C111.229 15.2048 112.368 14.0353 113.714 13.1439C115.919 11.7376 118.618 11.3465 121.248 11.175C125.905 10.8732 131.617 11.6964 134.261 16.128C136.391 19.6815 136.233 26.1711 136.384 30.1431C136.535 34.1151 136.261 42.6353 133.247 45.3725Z" fill="url(#paint19_linear)"/>
<path d="M134.275 7.87535C133.453 11.1819 130.432 13.6172 127.158 14.5571C124.768 15.2431 122.234 15.2431 119.796 15.7576C117.358 16.2721 114.858 17.4314 113.714 19.6404C112.851 21.3074 112.892 23.2762 112.954 25.1284L113.303 35.2882L111.317 32.7225C111.158 32.4661 110.916 32.2722 110.632 32.1737C109.981 32.0022 109.515 32.8048 109.413 33.4703C109.268 34.5292 109.411 35.6075 109.825 36.5923C110.24 37.5771 110.911 38.4322 111.769 39.0681C112.246 39.3276 112.652 39.6997 112.954 40.152C113.149 40.7116 113.149 41.321 112.954 41.8807L111.974 46.2711C109.235 45.0226 107.509 42.2168 106.358 39.4111C104.516 34.9658 103.618 30.1774 103.084 25.396C102.797 22.892 102.598 20.3195 103.208 17.8499C103.817 15.3803 105.372 13.0478 107.7 12.1286C106.461 9.32969 108.159 5.91337 110.728 4.2601C113.296 2.60682 116.488 2.2844 119.542 2.11976C121.597 2.01686 123.987 2.11976 125.946 1.46805C127.501 0.939828 128.364 -0.274404 130.056 -0.0274415C133.398 0.514504 134.98 5.08331 134.275 7.87535Z" fill="#25233A"/>
<path d="M131.788 94.9982C135.542 96.0203 142.391 98.7506 145.651 100.877C148.637 102.826 148.726 76.867 148.712 71.8249C148.712 69.1289 148.562 66.3368 147.39 63.9289C145.336 59.71 137.528 55.2167 135.281 61.1849C132.727 67.9558 130.884 94.7512 131.788 94.9982Z" fill="#68CEFD"/>
<path d="M131.788 94.9982C135.542 96.0203 142.391 98.7506 145.651 100.877C148.637 102.826 148.726 76.867 148.712 71.8249C148.712 69.1289 148.562 66.3368 147.39 63.9289C145.336 59.71 137.528 55.2167 135.281 61.1849C132.727 67.9558 130.884 94.7512 131.788 94.9982Z" fill="url(#paint20_linear)"/>
<path d="M151.466 114.474C151.466 114.474 157.917 120.25 150.822 124.558C143.726 128.866 147.966 139.788 147.966 139.788H152.692C152.692 139.788 149.603 133.222 152.5 128.873C155.397 124.524 157.027 124.435 157.027 119.989C157.027 115.544 153.37 112.059 153.37 112.059L151.466 114.474Z" fill="#484756"/>
<path d="M129.391 48.0891C128.615 48.6089 127.947 49.2753 127.426 50.051C126.652 51.4711 126.802 53.8995 126.611 54.5855C125.056 60.0736 121.864 61.9258 119.433 61.6926L118.597 61.5279C118.597 61.5279 119.036 47.6912 123.152 48.7819C127.268 49.8727 129.384 48.0136 129.384 48.0136L129.391 48.0891Z" fill="url(#paint21_linear)"/>
<path d="M160.986 148.651C160.588 152.492 159.39 156.197 158.589 159.977C156.575 169.519 157.13 179.377 156.931 189.125C156.961 189.576 156.869 190.026 156.664 190.429L151.87 188.048C151.87 188.048 150.856 169.828 153.472 163.05C156.089 156.272 155.102 144.343 155.102 144.343L153.671 129.141L155.726 129.36C159.797 134.919 161.671 141.791 160.986 148.651Z" fill="url(#paint22_linear)"/>
<path d="M127.104 184.927L125.734 188.858C125.51 189.732 125.083 190.54 124.487 191.217C124.122 191.566 123.678 191.82 123.193 191.958L114.289 184.131L123.624 165.19L127.104 184.927Z" fill="url(#paint23_linear)"/>
<path d="M116.207 185.215C115.995 186.271 113.625 189.427 113.193 190.401C111.865 193.406 109.721 196.109 108.194 199.059C106.674 202.243 105.525 205.592 104.769 209.04C102.76 216.934 100.993 224.88 99.4681 232.879C100.838 221.34 102.509 207.421 103.009 203.799C103.913 197.337 109.632 191.135 109.632 191.135C109.632 191.135 111.625 185.729 108.207 182.828C104.79 179.926 97.3928 180.234 97.3928 180.234C97.6325 179.83 97.8723 179.459 98.1188 179.116C102.431 179.13 106.682 180.13 110.55 182.039C111.283 182.423 111.995 182.814 112.687 183.205C113.262 183.548 116.207 185.215 116.207 185.215Z" fill="url(#paint24_linear)"/>
<path d="M155.623 195.189L150.055 190.429C146.63 189.852 134.912 192.562 134.912 192.562C134.825 191.905 134.8 191.241 134.836 190.579C139.891 189.132 147.849 187.335 153.719 188.247L153.89 188.858L155.623 195.189Z" fill="url(#paint25_linear)"/>
<path d="M280.138 93.194C280.254 93.3449 280.172 93.3106 280.138 93.194V93.194Z" fill="#68CEFD"/>
<path d="M280.138 93.194C280.254 93.3449 280.172 93.3106 280.138 93.194V93.194ZM295.973 56.6779C296.377 51.1006 292.877 46.6141 288.288 43.4242C273.22 32.942 245.091 18.0763 243.42 17.4932C242.05 17.0061 240.783 18.1792 239.701 20.3607C235.4 29.0455 233.537 54.0436 234.263 59.1063C233.583 59.4753 232.966 59.95 232.434 60.5126C232.434 60.5126 208.983 74.2739 202.34 79.4876L202.039 79.7277C200.443 81.0174 199.895 83.3018 203.258 85.7577C217.004 95.8008 235.722 110.667 249.468 120.744C250.134 121.332 250.954 121.718 251.831 121.855C252.92 121.924 253.886 121.231 254.762 120.566L287.939 95.3755C288.5 94.9501 289.117 94.3876 289.028 93.6879C288.98 93.1322 294.938 70.9742 295.973 56.6779Z" fill="#68CEFD"/>
<path d="M292.247 55.7655C292.623 50.4969 289.322 46.2574 284.987 43.2459C270.789 33.3468 244.181 19.3042 242.605 18.7486C241.544 18.3781 240.551 19.0161 239.701 20.3607C235.4 29.0455 233.537 54.0436 234.263 59.1063C233.583 59.4753 232.966 59.95 232.435 60.5126C232.435 60.5126 208.984 74.2739 202.34 79.4876C202.21 80.5783 202.806 81.8817 204.662 83.2332C217.675 92.7206 235.332 106.763 248.31 116.251C248.941 116.805 249.715 117.169 250.543 117.3C251.577 117.362 252.495 116.71 253.283 116.079L284.617 92.2885C285.151 91.8837 285.733 91.3555 285.651 90.6901C285.588 90.4524 285.476 90.2304 285.322 90.038C285.169 89.8457 284.978 89.687 284.761 89.5719C284.884 89.5173 285.004 89.4531 285.117 89.3798C286.439 88.5223 291.267 69.2729 292.247 55.7655ZM277.289 90.2579C277.398 90.4019 277.289 90.3676 277.289 90.2579V90.2579Z" fill="url(#paint26_linear)"/>
<path d="M280.138 93.194C280.254 93.3449 280.172 93.3106 280.138 93.194V93.194Z" fill="#68CEFD"/>
<path d="M234.263 59.1063L285.706 90.6901L284.672 92.2884L232.969 60.0256L234.263 59.1063Z" fill="url(#paint27_linear)"/>
<path d="M242.393 23.0292L287.774 50.7165C287.774 50.7165 285.966 75.4127 282.501 85.9978L236.612 57.2815L242.393 23.0292Z" fill="#68CEFD"/>
<path d="M242.393 23.0292L287.774 50.7165C287.774 50.7165 285.966 75.4127 282.501 85.9978L236.612 57.2815L242.393 23.0292Z" fill="url(#paint28_linear)"/>
<path d="M218.736 73.2518L233.969 63.977L277.289 90.2579L260.248 102.085L218.736 73.2518Z" fill="url(#paint29_linear)"/>
<path d="M227.989 83.6791L244.064 94.6277L234.16 101.453L219.25 90.3539L227.989 83.6791Z" fill="url(#paint30_linear)"/>
<path d="M15.4171 172.592C15.4171 172.592 25.944 171.968 29.8 169.78C32.0392 168.523 34.1398 167.033 36.0669 165.334L38.7517 154.118C37.7205 153.974 36.6702 154.061 35.6765 154.372C34.5669 154.887 29.9027 160.038 25.2249 164.161C21.3415 167.578 15.4856 170.466 15.4171 172.592Z" fill="url(#paint31_linear)"/>
<path d="M100.749 264.867C100.271 265.639 99.5467 266.226 98.694 266.534C90.4341 270.465 80.9756 270.767 71.8322 270.993C71.2729 271.046 70.7088 270.982 70.1748 270.808C68.8735 270.28 68.579 268.75 68.805 267.302C69.8803 267.302 86.4206 267.474 92.2628 264.984C98.3036 262.411 100.482 260.991 100.482 260.991L100.728 261.677C100.776 261.917 100.817 262.157 100.858 262.397C101.075 263.212 101.037 264.075 100.749 264.867Z" fill="#68CEFD"/>
<path d="M100.749 264.867C100.271 265.639 99.5467 266.226 98.694 266.534C90.4341 270.465 80.9756 270.767 71.8322 270.993C71.2729 271.046 70.7088 270.982 70.1748 270.808C68.8735 270.28 68.579 268.75 68.805 267.302C69.8803 267.302 86.4206 267.474 92.2628 264.984C98.3036 262.411 100.482 260.991 100.482 260.991L100.728 261.677C100.776 261.917 100.817 262.157 100.858 262.397C101.075 263.212 101.037 264.075 100.749 264.867Z" fill="url(#paint32_linear)"/>
</g>
<defs>
<linearGradient id="paint0_linear" x1="200.888" y1="171.46" x2="212.978" y2="212.693" gradientUnits="userSpaceOnUse">
<stop stop-opacity="0"/>
<stop offset="0.97"/>
</linearGradient>
<linearGradient id="paint1_linear" x1="96.523" y1="111.833" x2="110.262" y2="111.833" gradientUnits="userSpaceOnUse">
<stop stop-color="#ECC4D7"/>
<stop offset="0.42" stop-color="#EFD4D1"/>
<stop offset="1" stop-color="#F2EAC9"/>
</linearGradient>
<linearGradient id="paint2_linear" x1="10815.4" y1="18293" x2="15240.4" y2="17912.5" gradientUnits="userSpaceOnUse">
<stop stop-opacity="0"/>
<stop offset="0.97"/>
</linearGradient>
<linearGradient id="paint3_linear" x1="5786.62" y1="4470.8" x2="7336.15" y2="4470.8" gradientUnits="userSpaceOnUse">
<stop stop-opacity="0"/>
<stop offset="0.97"/>
</linearGradient>
<linearGradient id="paint4_linear" x1="8394.08" y1="21658.7" x2="16345.1" y2="17040.3" gradientUnits="userSpaceOnUse">
<stop stop-opacity="0"/>
<stop offset="0.97"/>
</linearGradient>
<linearGradient id="paint5_linear" x1="2842.01" y1="3970.99" x2="2544.22" y2="4112.36" gradientUnits="userSpaceOnUse">
<stop stop-opacity="0"/>
<stop offset="0.97"/>
</linearGradient>
<linearGradient id="paint6_linear" x1="6868.87" y1="2272.35" x2="6871.84" y2="2351.57" gradientUnits="userSpaceOnUse">
<stop stop-opacity="0"/>
<stop offset="0.97"/>
</linearGradient>
<linearGradient id="paint7_linear" x1="151.37" y1="90.7038" x2="105.343" y2="94.8135" gradientUnits="userSpaceOnUse">
<stop stop-color="white" stop-opacity="0"/>
<stop offset="0.84" stop-color="white" stop-opacity="0.84"/>
<stop offset="0.97" stop-color="white"/>
</linearGradient>
<linearGradient id="paint8_linear" x1="13318.4" y1="10806.7" x2="-8211.83" y2="36467.8" gradientUnits="userSpaceOnUse">
<stop stop-opacity="0"/>
<stop offset="0.97"/>
</linearGradient>
<linearGradient id="paint9_linear" x1="6493.72" y1="9853.86" x2="7858.28" y2="9853.86" gradientUnits="userSpaceOnUse">
<stop stop-color="#ECC4D7"/>
<stop offset="0.42" stop-color="#EFD4D1"/>
<stop offset="1" stop-color="#F2EAC9"/>
</linearGradient>
<linearGradient id="paint10_linear" x1="2830.5" y1="10668.6" x2="3195.66" y2="10668.6" gradientUnits="userSpaceOnUse">
<stop stop-color="#ECC4D7"/>
<stop offset="0.42" stop-color="#EFD4D1"/>
<stop offset="1" stop-color="#F2EAC9"/>
</linearGradient>
<linearGradient id="paint11_linear" x1="14751.5" y1="14641.9" x2="20286.5" y2="14641.9" gradientUnits="userSpaceOnUse">
<stop stop-color="#ECC4D7"/>
<stop offset="0.42" stop-color="#EFD4D1"/>
<stop offset="1" stop-color="#F2EAC9"/>
</linearGradient>
<linearGradient id="paint12_linear" x1="5265.8" y1="27900" x2="6713.15" y2="27900" gradientUnits="userSpaceOnUse">
<stop stop-color="#ECC4D7"/>
<stop offset="0.42" stop-color="#EFD4D1"/>
<stop offset="1" stop-color="#F2EAC9"/>
</linearGradient>
<linearGradient id="paint13_linear" x1="7816.06" y1="10815.6" x2="7218.45" y2="8419.89" gradientUnits="userSpaceOnUse">
<stop stop-opacity="0"/>
<stop offset="0.97"/>
</linearGradient>
<linearGradient id="paint14_linear" x1="5214.77" y1="10372.1" x2="6041.04" y2="11231.9" gradientUnits="userSpaceOnUse">
<stop stop-opacity="0"/>
<stop offset="0.97"/>
</linearGradient>
<linearGradient id="paint15_linear" x1="9602.58" y1="5901.39" x2="3109.41" y2="8906.02" gradientUnits="userSpaceOnUse">
<stop stop-color="white" stop-opacity="0"/>
<stop offset="0.84" stop-color="white" stop-opacity="0.84"/>
<stop offset="0.97" stop-color="white"/>
</linearGradient>
<linearGradient id="paint16_linear" x1="848.732" y1="6399.87" x2="929.781" y2="6354.02" gradientUnits="userSpaceOnUse">
<stop stop-opacity="0"/>
<stop offset="0.97"/>
</linearGradient>
<linearGradient id="paint17_linear" x1="1337.23" y1="5301.8" x2="1402.25" y2="5259.22" gradientUnits="userSpaceOnUse">
<stop stop-opacity="0"/>
<stop offset="0.97"/>
</linearGradient>
<linearGradient id="paint18_linear" x1="3119.94" y1="8378.67" x2="3903.32" y2="9603.27" gradientUnits="userSpaceOnUse">
<stop stop-opacity="0"/>
<stop offset="0.97"/>
</linearGradient>
<linearGradient id="paint19_linear" x1="6084.15" y1="4714.73" x2="7647.68" y2="5850.54" gradientUnits="userSpaceOnUse">
<stop stop-color="#ECC4D7"/>
<stop offset="0.42" stop-color="#EFD4D1"/>
<stop offset="1" stop-color="#F2EAC9"/>
</linearGradient>
<linearGradient id="paint20_linear" x1="4483.01" y1="7480.61" x2="4178.06" y2="7474.81" gradientUnits="userSpaceOnUse">
<stop stop-color="white" stop-opacity="0"/>
<stop offset="0.84" stop-color="white" stop-opacity="0.84"/>
<stop offset="0.97" stop-color="white"/>
</linearGradient>
<linearGradient id="paint21_linear" x1="2568.84" y1="2007.83" x2="3794.94" y2="3029.91" gradientUnits="userSpaceOnUse">
<stop stop-color="#ECC4D7"/>
<stop offset="0.42" stop-color="#EFD4D1"/>
<stop offset="1" stop-color="#F2EAC9"/>
</linearGradient>
<linearGradient id="paint22_linear" x1="2811.78" y1="17304.4" x2="1638.41" y2="17433.6" gradientUnits="userSpaceOnUse">
<stop stop-opacity="0"/>
<stop offset="0.97"/>
</linearGradient>
<linearGradient id="paint23_linear" x1="2747.15" y1="8501.81" x2="4044.01" y2="8762.1" gradientUnits="userSpaceOnUse">
<stop stop-opacity="0"/>
<stop offset="0.97"/>
</linearGradient>
<linearGradient id="paint24_linear" x1="3068.34" y1="18716.4" x2="6540.61" y2="19225.9" gradientUnits="userSpaceOnUse">
<stop stop-opacity="0"/>
<stop offset="0.97"/>
</linearGradient>
<linearGradient id="paint25_linear" x1="5100.43" y1="2714.13" x2="5631.24" y2="1330.09" gradientUnits="userSpaceOnUse">
<stop stop-opacity="0"/>
<stop offset="0.97"/>
</linearGradient>
<linearGradient id="paint26_linear" x1="46199.9" y1="13277.5" x2="21572.4" y2="17787.5" gradientUnits="userSpaceOnUse">
<stop stop-color="white" stop-opacity="0"/>
<stop offset="0.84" stop-color="white" stop-opacity="0.84"/>
<stop offset="0.97" stop-color="white"/>
</linearGradient>
<linearGradient id="paint27_linear" x1="23030.8" y1="3364.38" x2="16402.7" y2="5480.41" gradientUnits="userSpaceOnUse">
<stop stop-color="white" stop-opacity="0"/>
<stop offset="0.84" stop-color="white" stop-opacity="0.84"/>
<stop offset="0.97" stop-color="white"/>
</linearGradient>
<linearGradient id="paint28_linear" x1="24232.6" y1="6571.13" x2="7793.16" y2="16343.4" gradientUnits="userSpaceOnUse">
<stop stop-opacity="0"/>
<stop offset="0.97"/>
</linearGradient>
<linearGradient id="paint29_linear" x1="23596.8" y1="3569.5" x2="14326" y2="13991.5" gradientUnits="userSpaceOnUse">
<stop stop-opacity="0"/>
<stop offset="0.97"/>
</linearGradient>
<linearGradient id="paint30_linear" x1="9294.94" y1="2380.85" x2="7656.72" y2="2840.26" gradientUnits="userSpaceOnUse">
<stop stop-color="white" stop-opacity="0"/>
<stop offset="0.84" stop-color="white" stop-opacity="0.84"/>
<stop offset="0.97" stop-color="white"/>
</linearGradient>
<linearGradient id="paint31_linear" x1="1984.39" y1="5289" x2="1821.04" y2="6203.01" gradientUnits="userSpaceOnUse">
<stop stop-color="white" stop-opacity="0"/>
<stop offset="0.84" stop-color="white" stop-opacity="0.84"/>
<stop offset="0.97" stop-color="white"/>
</linearGradient>
<linearGradient id="paint32_linear" x1="5290.23" y1="4590.76" x2="5309.05" y2="4881.94" gradientUnits="userSpaceOnUse">
<stop stop-opacity="0"/>
<stop offset="0.97"/>
</linearGradient>
<clipPath id="clip0">
<rect width="296" height="271" fill="white"/>
</clipPath>
</defs>
</svg>
