<svg width="363" height="274" viewBox="0 0 363 274" fill="none" xmlns="http://www.w3.org/2000/svg">
<g clip-path="url(#clip0)">
<path d="M46.9851 69.8287C34.2664 83.8074 18.7593 95.6315 9.37007 112.049C-7.25111 141.09 -0.47642 179.549 19.5707 206.338C32.0769 223.059 48.917 235.921 65.5253 248.565C74.0194 255.015 82.6231 261.556 92.3987 265.833C101.865 269.968 112.15 271.871 122.415 273.019C132.828 274.193 143.441 274.619 153.719 272.548C169.129 269.446 182.891 260.937 197.844 256.054C233.012 244.585 271.072 254.016 308.036 255.377C315.539 255.654 323.208 255.564 330.337 253.196C348.903 247.029 359.42 226.748 361.892 207.325C364.365 187.902 360.688 168.234 360.675 148.624C360.675 129.743 364.03 110.887 362.717 92.0514C361.403 73.2153 354.287 53.3988 338.445 43.1357C331.445 38.6202 323.286 36.2657 315.262 34.0015C271.542 21.6291 227.506 9.21791 182.26 3.78642C147.781 -0.348478 118.602 -6.25087 90.7437 17.9457C73.5558 32.8984 62.2088 53.102 46.9851 69.8287Z" fill="white"/>
<path d="M246.008 230.684C239.677 228.916 233.508 226.4 226.984 225.555C221.098 224.794 215.129 225.42 209.23 226.045L132.66 234.16C130.619 234.38 128.017 235.147 127.908 237.205C127.934 237.996 128.194 238.762 128.655 239.405C133.06 246.668 141.676 250.468 150.112 251.358C158.548 252.248 167.017 250.661 175.414 249.481C193.861 246.888 212.526 246.203 231.112 247.436C257.973 249.223 287.364 254.441 309.917 239.695C288.633 236.947 266.886 236.496 246.008 230.684Z" fill="url(#paint0_linear)"/>
<path d="M108.762 63.8942C108.762 63.8942 110.456 51.4572 122.988 46.5934C135.52 41.7296 147.71 52.1346 150.196 61.7461C152.682 71.3577 108.762 63.8942 108.762 63.8942Z" fill="#68E1FD"/>
<path d="M130.619 85.5686C139.379 85.5686 146.48 78.4552 146.48 69.6805C146.48 60.9057 139.379 53.7924 130.619 53.7924C121.859 53.7924 114.758 60.9057 114.758 69.6805C114.758 78.4552 121.859 85.5686 130.619 85.5686Z" fill="white"/>
<path opacity="0.26" d="M179.182 188.386H89.1916C88.0428 188.386 87.1115 189.319 87.1115 190.47C87.1115 191.621 88.0428 192.553 89.1916 192.553H179.182C180.33 192.553 181.262 191.621 181.262 190.47C181.262 189.319 180.33 188.386 179.182 188.386Z" fill="url(#paint1_linear)"/>
<path d="M196.125 220.201L113.856 221.091C110.849 221.125 107.853 220.708 104.969 219.853C100.65 218.583 96.6602 216.381 93.2808 213.402C88.6892 209.312 83.2927 204.371 79.667 200.501C74.5152 195.011 68.8932 182.987 67.2575 169.828C66.4229 163.561 66.6953 157.196 68.0625 151.024C72.5704 131.814 68.0625 95.4639 68.0625 95.4639L190.567 94.9543L190.058 107.572C188.571 128.808 196.125 220.201 196.125 220.201Z" fill="#68E1FD"/>
<path d="M104.988 219.853C100.669 218.583 96.6796 216.381 93.3002 213.402C88.7086 209.312 83.312 204.371 79.6864 200.501C74.5345 195.011 68.9126 182.987 67.2769 169.828C70.5805 172.408 72.7829 176.311 76.2218 178.813C79.4417 181.181 83.4473 182.097 87.3691 182.768C92.9802 183.759 98.6514 184.371 104.344 184.6L102.49 207.442C102.219 210.802 102.168 213.892 103.533 217.047C103.913 217.943 104.505 218.885 104.988 219.853Z" fill="url(#paint2_linear)"/>
<path d="M70.0975 108.372C70.0975 108.372 140.047 110.642 157.035 109.888C167.754 109.451 178.49 109.703 189.176 110.642L190.561 94.9866L68.0818 95.4704L70.0975 108.372Z" fill="url(#paint3_linear)"/>
<path d="M68.0818 95.4704L72.3643 89.9099L185.551 89.6583L190.587 94.9608L68.0818 95.4704Z" fill="#68E1FD"/>
<path opacity="0.26" d="M68.0818 95.4704L72.3643 89.9099L185.551 89.6583L190.587 94.9608L68.0818 95.4704Z" fill="url(#paint4_linear)"/>
<path opacity="0.26" d="M177.166 126.272H87.1759C86.0271 126.272 85.0958 127.205 85.0958 128.356C85.0958 129.507 86.0271 130.44 87.1759 130.44H177.166C178.315 130.44 179.246 129.507 179.246 128.356C179.246 127.205 178.315 126.272 177.166 126.272Z" fill="url(#paint5_linear)"/>
<path opacity="0.26" d="M177.166 141.928H87.1759C86.0271 141.928 85.0958 142.861 85.0958 144.012C85.0958 145.163 86.0271 146.095 87.1759 146.095H177.166C178.315 146.095 179.246 145.163 179.246 144.012C179.246 142.861 178.315 141.928 177.166 141.928Z" fill="url(#paint6_linear)"/>
<path opacity="0.26" d="M177.166 157.584H87.1759C86.0271 157.584 85.0958 158.517 85.0958 159.668C85.0958 160.818 86.0271 161.751 87.1759 161.751H177.166C178.315 161.751 179.246 160.818 179.246 159.668C179.246 158.517 178.315 157.584 177.166 157.584Z" fill="url(#paint7_linear)"/>
<path opacity="0.26" d="M177.166 173.24H87.1759C86.0271 173.24 85.0958 174.173 85.0958 175.324C85.0958 176.474 86.0271 177.407 87.1759 177.407H177.166C178.315 177.407 179.246 176.474 179.246 175.324C179.246 174.173 178.315 173.24 177.166 173.24Z" fill="url(#paint8_linear)"/>
<path d="M68.0818 95.4704L72.3643 89.9099L185.551 89.6583L190.587 94.9608L68.0818 95.4704Z" fill="#68E1FD"/>
<path d="M113.276 81.6465L108.421 90.6775C108.421 90.6775 107.861 92.1483 110.681 91.6967L116.329 84.7945L113.276 81.6465Z" fill="#68E1FD"/>
<path d="M146.197 81.6465L151.053 90.6775C151.053 90.6775 151.619 92.1483 148.792 91.6967L143.151 84.7945L146.197 81.6465Z" fill="#68E1FD"/>
<path d="M113.276 81.6465L108.421 90.6775C108.421 90.6775 107.861 92.1483 110.681 91.6967L116.329 84.7945L113.276 81.6465Z" fill="url(#paint9_linear)"/>
<path d="M146.197 81.6465L151.053 90.6775C151.053 90.6775 151.619 92.1483 148.792 91.6967L143.151 84.7945L146.197 81.6465Z" fill="url(#paint10_linear)"/>
<path d="M129.872 47.832C135.57 47.7888 141.058 49.9848 145.158 53.9489C149.258 57.9129 151.643 63.329 151.801 69.0347C151.96 74.7403 149.879 80.2808 146.005 84.4671C142.132 88.6533 136.774 91.1516 131.083 91.4258C128.169 91.5993 125.25 91.1843 122.499 90.2054C119.748 89.2265 117.222 87.7038 115.071 85.7276C112.919 83.7515 111.186 81.3623 109.975 78.702C108.764 76.0417 108.098 73.1646 108.019 70.2417C107.939 67.3188 108.447 64.4098 109.513 61.6874C110.578 58.965 112.178 56.4849 114.219 54.3944C116.26 52.3039 118.7 50.6457 121.393 49.5184C124.087 48.391 126.979 47.8175 129.898 47.832H129.872ZM145.044 69.5579C144.993 65.5462 143.362 61.7171 140.506 58.9044C137.65 56.0918 133.8 54.5233 129.795 54.5407C125.801 54.5569 121.978 56.1615 119.166 59.0013C116.354 61.8412 114.783 65.6838 114.8 69.6837C114.816 73.6836 116.418 77.5133 119.253 80.3302C122.088 83.147 125.924 84.7204 129.917 84.7042C133.923 84.6889 137.761 83.0884 140.594 80.2514C143.428 77.4145 145.027 73.5708 145.044 69.5579Z" fill="#68E1FD"/>
<path d="M140.504 48.0126C141.393 46.0193 144.413 44.5937 146.944 44.9162C148.416 45.0554 149.8 45.6779 150.882 46.6871C151.964 47.6963 152.683 49.0354 152.927 50.4961C153.364 52.9538 152.186 56.076 150.428 56.9468C147.998 53.1157 144.565 50.0255 140.504 48.0126Z" fill="#68E1FD"/>
<path d="M109.361 56.8694C108.33 56.0525 107.566 54.9449 107.169 53.6894C106.772 52.4339 106.759 51.088 107.133 49.8252C107.481 48.616 108.159 47.528 109.091 46.6836C110.023 45.8392 111.171 45.2719 112.407 45.0452C113.71 44.8087 115.053 44.9538 116.275 45.463C117.497 45.9721 118.547 46.8238 119.298 47.9158C115.235 49.9401 111.799 53.0356 109.361 56.8694Z" fill="#68E1FD"/>
<path d="M138.295 59.9915C139.448 61.1204 139.448 61.1204 138.379 62.1848C136.447 64.12 134.515 66.0552 132.583 67.9904C132.41 68.127 132.283 68.3132 132.219 68.5242C132.154 68.7351 132.156 68.9607 132.222 69.1709C132.384 69.749 132.313 70.3678 132.024 70.8939C131.735 71.4199 131.251 71.8112 130.677 71.9834C130.111 72.1806 129.491 72.1574 128.941 71.9185C128.391 71.6795 127.951 71.2421 127.708 70.6932C127.608 70.444 127.457 70.2184 127.266 70.0307C127.074 69.843 126.845 69.6974 126.594 69.6031C124.623 68.7387 122.672 67.8291 120.702 66.9647C120.174 66.739 120.058 66.4938 120.27 65.9391C121.23 63.791 120.914 64.1006 122.795 64.9134C124.508 65.6552 126.188 66.468 127.908 67.2034C128.326 67.3207 128.763 67.3622 129.196 67.326C129.428 67.326 129.679 67.2034 129.891 67.2615C130.735 67.4872 131.244 67.0421 131.785 66.4874C133.717 64.507 135.694 62.5589 137.658 60.5979C137.857 60.3657 138.063 60.1786 138.295 59.9915Z" fill="#68E1FD"/>
<path d="M129.872 47.832C135.57 47.7888 141.058 49.9848 145.158 53.9489C149.258 57.9129 151.643 63.329 151.801 69.0347C151.96 74.7403 149.879 80.2808 146.005 84.4671C142.132 88.6533 136.774 91.1516 131.083 91.4258C128.169 91.5993 125.25 91.1843 122.499 90.2054C119.748 89.2265 117.222 87.7038 115.071 85.7276C112.919 83.7515 111.186 81.3623 109.975 78.702C108.764 76.0417 108.098 73.1646 108.019 70.2417C107.939 67.3188 108.447 64.4098 109.513 61.6874C110.578 58.965 112.178 56.4849 114.219 54.3944C116.26 52.3039 118.7 50.6457 121.393 49.5184C124.087 48.391 126.979 47.8175 129.898 47.832H129.872ZM145.044 69.5579C144.993 65.5462 143.362 61.7171 140.506 58.9044C137.65 56.0918 133.8 54.5233 129.795 54.5407C125.801 54.5569 121.978 56.1615 119.166 59.0013C116.354 61.8412 114.783 65.6838 114.8 69.6837C114.816 73.6836 116.418 77.5133 119.253 80.3302C122.088 83.147 125.924 84.7204 129.917 84.7042C133.923 84.6889 137.761 83.0884 140.594 80.2514C143.428 77.4145 145.027 73.5708 145.044 69.5579Z" fill="url(#paint11_linear)"/>
<path d="M150.434 56.9532C150.357 56.8565 150.312 56.7855 150.26 56.7146C149.951 56.2308 149.616 55.7728 149.275 55.3148C146.972 52.2151 143.962 49.7115 140.498 48.0126C141.386 46.0129 144.419 44.5872 146.937 44.9033C147.843 45.0132 148.718 45.3003 149.513 45.7484C150.408 46.2219 151.18 46.8974 151.769 47.7214C152.358 48.5454 152.748 49.4953 152.907 50.4961C153.364 52.9538 152.186 56.0824 150.434 56.9532Z" fill="url(#paint12_linear)"/>
<path d="M150.434 56.9532C150.357 56.8565 150.312 56.7855 150.26 56.7146C149.926 56.2308 149.616 55.7728 149.275 55.3148C147.253 52.5668 144.922 50.1542 141.792 48.5931C142.687 46.587 145.714 45.1678 148.232 45.4839C148.669 45.53 149.1 45.6186 149.52 45.7484C150.414 46.2219 151.187 46.8974 151.776 47.7214C152.365 48.5454 152.754 49.4953 152.914 50.4961C153.364 52.9538 152.186 56.0824 150.434 56.9532Z" fill="url(#paint13_linear)"/>
<path d="M119.298 47.9158L118.866 48.1351C118.119 48.5394 117.398 48.9694 116.702 49.4253C116.58 49.5027 116.458 49.5737 116.361 49.6446C114.085 51.1968 112.085 53.1199 110.443 55.3341C110.443 55.3341 110.398 55.4051 110.372 55.4309C110.008 55.893 109.671 56.3755 109.361 56.8758C108.326 56.0504 107.56 54.934 107.162 53.6699C106.764 52.4057 106.751 51.0513 107.126 49.7801C107.405 48.7527 107.944 47.8149 108.691 47.0579C109.664 45.981 110.967 45.2592 112.394 45.0065C113.703 44.7697 115.051 44.9186 116.277 45.4351C117.502 45.9515 118.552 46.8133 119.298 47.9158Z" fill="url(#paint14_linear)"/>
<path d="M119.298 47.9158L118.866 48.1351C118.119 48.5673 117.398 48.9737 116.703 49.4253C116.58 49.5027 116.458 49.5736 116.361 49.6446C114.011 51.1032 111.994 53.0419 110.443 55.3341C110.443 55.3341 110.398 55.4051 110.372 55.4309C109.339 54.6139 108.576 53.5044 108.182 52.2467C107.788 50.9891 107.782 49.6417 108.163 48.3803C108.275 47.9266 108.453 47.492 108.691 47.0901C109.664 46.0132 110.967 45.2915 112.394 45.0388C113.699 44.7987 115.046 44.9426 116.271 45.4532C117.497 45.9638 118.548 46.8192 119.298 47.9158Z" fill="url(#paint15_linear)"/>
<path d="M138.295 59.9915C139.448 61.1204 139.448 61.1204 138.379 62.1848C136.447 64.12 134.515 66.0552 132.583 67.9904C132.41 68.127 132.283 68.3132 132.219 68.5242C132.154 68.7351 132.156 68.9607 132.222 69.1709C132.384 69.749 132.313 70.3678 132.024 70.8939C131.735 71.4199 131.251 71.8112 130.677 71.9834C130.111 72.1806 129.491 72.1574 128.941 71.9185C128.391 71.6795 127.951 71.2421 127.708 70.6932C127.608 70.444 127.457 70.2184 127.266 70.0307C127.074 69.843 126.845 69.6974 126.594 69.6031C124.623 68.7387 122.672 67.8291 120.702 66.9647C120.174 66.739 120.058 66.4938 120.27 65.9391C121.23 63.791 120.914 64.1006 122.795 64.9134C124.508 65.6552 126.188 66.468 127.908 67.2034C128.326 67.3207 128.763 67.3622 129.196 67.326C129.428 67.326 129.679 67.2034 129.891 67.2615C130.735 67.4872 131.244 67.0421 131.785 66.4874C133.717 64.507 135.694 62.5589 137.658 60.5979C137.857 60.3657 138.063 60.1786 138.295 59.9915Z" fill="url(#paint16_linear)"/>
<path d="M158.265 51.6959C157.983 51.6956 157.711 51.5958 157.495 51.4141C157.28 51.2324 157.135 50.9805 157.087 50.7025C156.443 47.1998 154.981 44.613 152.656 43.0133C148.715 40.304 143.64 41.2651 143.595 41.2716C143.282 41.3315 142.959 41.265 142.695 41.0865C142.431 40.908 142.248 40.632 142.187 40.319C142.126 40.006 142.191 39.6815 142.368 39.4163C142.545 39.1512 142.819 38.967 143.132 38.9042C143.383 38.8526 149.256 37.7495 154.021 41.0265C156.893 43.0068 158.722 46.1225 159.45 50.2832C159.478 50.4387 159.475 50.5981 159.441 50.7524C159.407 50.9067 159.343 51.0527 159.253 51.1822C159.162 51.3116 159.047 51.4219 158.914 51.5068C158.781 51.5916 158.633 51.6493 158.478 51.6766L158.265 51.6959Z" fill="#68E1FD"/>
<path d="M164.499 49.7801C164.107 49.7795 163.727 49.6399 163.428 49.3861C163.129 49.1323 162.929 48.7805 162.863 48.3932C162.013 43.5358 159.946 39.9556 156.72 37.7366C151.252 33.9759 144.226 35.3047 144.155 35.3111C143.938 35.3612 143.712 35.3669 143.492 35.3279C143.272 35.289 143.062 35.2061 142.875 35.0844C142.687 34.9626 142.526 34.8043 142.401 34.619C142.276 34.4336 142.189 34.225 142.146 34.0054C142.103 33.7858 142.104 33.5598 142.15 33.3408C142.196 33.1217 142.285 32.9141 142.412 32.7303C142.54 32.5464 142.702 32.3901 142.891 32.2705C143.08 32.1509 143.291 32.0706 143.511 32.0342C143.866 31.9632 152.006 30.4344 158.619 34.9822C162.606 37.7237 165.143 42.0392 166.154 47.819C166.192 48.0355 166.187 48.2574 166.139 48.4719C166.091 48.6864 166.002 48.8893 165.875 49.0691C165.749 49.2489 165.589 49.4019 165.403 49.5195C165.218 49.6371 165.011 49.7168 164.795 49.7543C164.698 49.7732 164.598 49.7818 164.499 49.7801Z" fill="#68E1FD"/>
<path d="M170.939 47.4514C170.427 47.4511 169.932 47.2698 169.54 46.9393C169.149 46.6088 168.887 46.1504 168.801 45.6452C167.693 39.317 165.001 34.6403 160.796 31.7568C153.674 26.8543 144.51 28.5895 144.419 28.596C144.14 28.6514 143.851 28.6512 143.572 28.5951C143.292 28.5391 143.026 28.4284 142.789 28.2693C142.552 28.1103 142.348 27.9061 142.19 27.6682C142.031 27.4304 141.921 27.1637 141.866 26.8833C141.811 26.6029 141.811 26.3143 141.867 26.034C141.923 25.7538 142.033 25.4872 142.192 25.2497C142.351 25.0122 142.555 24.8084 142.792 24.6498C143.03 24.4913 143.296 24.3811 143.576 24.3256C144.033 24.2288 154.639 22.2356 163.262 28.196C168.459 31.7697 171.763 37.4012 173.083 44.9291C173.18 45.4986 173.049 46.0835 172.717 46.5561C172.385 47.0287 171.88 47.3506 171.312 47.4514C171.188 47.4641 171.063 47.4641 170.939 47.4514Z" fill="#68E1FD"/>
<path d="M159.418 51.6056C159.135 51.605 158.862 51.5043 158.646 51.3213C158.431 51.1384 158.286 50.8849 158.239 50.6057C157.628 47.103 156.134 44.5227 153.809 42.923C149.874 40.2137 144.793 41.1684 144.754 41.1748C144.595 41.2176 144.429 41.2271 144.266 41.2029C144.103 41.1788 143.947 41.1214 143.807 41.0343C143.667 40.9472 143.546 40.8322 143.453 40.6966C143.359 40.5609 143.294 40.4075 143.262 40.2456C143.229 40.0838 143.231 39.9171 143.265 39.7558C143.3 39.5944 143.367 39.442 143.463 39.3078C143.559 39.1736 143.681 39.0605 143.823 38.9755C143.964 38.8906 144.121 38.8356 144.284 38.8139C144.535 38.7623 150.409 37.6592 155.174 40.9361C158.053 42.9101 159.875 46.0258 160.609 50.1929C160.663 50.5076 160.591 50.8311 160.407 51.0923C160.224 51.3535 159.944 51.5311 159.63 51.5863C159.56 51.5991 159.489 51.6056 159.418 51.6056Z" fill="url(#paint17_linear)"/>
<path d="M165.626 49.6704C165.235 49.6701 164.856 49.5314 164.557 49.2789C164.258 49.0264 164.057 48.6761 163.99 48.2899C163.14 43.4326 161.073 39.846 157.847 37.6269C152.386 33.8662 145.353 35.2015 145.282 35.2079C144.855 35.2785 144.417 35.1795 144.061 34.9321C143.705 34.6846 143.459 34.308 143.375 33.8821C143.291 33.4562 143.376 33.0143 143.612 32.6501C143.848 32.286 144.216 32.028 144.638 31.931C144.986 31.86 153.126 30.3247 159.74 34.8725C163.726 37.614 166.263 41.9683 167.274 47.7158C167.313 47.9319 167.309 48.1536 167.262 48.3681C167.215 48.5825 167.126 48.7856 167 48.9654C166.875 49.1453 166.715 49.2985 166.53 49.4162C166.345 49.5339 166.138 49.6137 165.922 49.651C165.824 49.6673 165.725 49.6738 165.626 49.6704Z" fill="url(#paint18_linear)"/>
<path d="M172.066 47.3353C171.555 47.3353 171.06 47.1548 170.669 46.8256C170.278 46.4964 170.016 46.0396 169.928 45.5355C168.82 39.2009 166.128 34.5306 161.929 31.6407C154.8 26.7382 145.643 28.4734 145.546 28.4863C144.989 28.5766 144.418 28.4463 143.955 28.123C143.491 27.7997 143.172 27.3086 143.063 26.7535C142.954 26.1983 143.065 25.6226 143.373 25.148C143.68 24.6733 144.159 24.3368 144.709 24.2095C145.16 24.1192 155.773 22.1259 164.389 28.0799C169.586 31.6536 172.896 37.2851 174.21 44.8517C174.259 45.133 174.253 45.4212 174.19 45.6998C174.128 45.9784 174.012 46.2421 173.848 46.4757C173.684 46.7093 173.476 46.9083 173.235 47.0614C172.995 47.2144 172.726 47.3184 172.446 47.3675C172.318 47.3699 172.191 47.3591 172.066 47.3353Z" fill="url(#paint19_linear)"/>
<path d="M292.181 51.5669C292.713 49.655 292.728 47.636 292.226 45.7161C291.631 43.7298 290.599 41.9024 289.206 40.3685C289.206 40.3685 286.894 39.5622 285.001 40.304C283.108 41.0458 285.786 44.4518 285.535 46.0709C285.284 47.69 283.739 43.1746 282.824 43.5745C281.91 43.9744 284.247 50.1865 285.993 50.9605" fill="#C48067"/>
<path d="M222.039 105.488C222.039 105.488 217.08 101.934 216.204 100.689C215.328 99.444 218.419 95.6574 217.492 94.8318C216.565 94.0061 213.223 92.2837 213.551 90.6388C213.879 88.9939 219.476 92.774 222.013 94.6705C224.55 96.567 226.856 101.579 226.856 101.579C226.856 101.579 226.237 106.437 222.039 105.488Z" fill="#C48067"/>
<path d="M283.223 88.6004C282.927 91.458 282.509 94.993 282.019 98.8828C279.759 117.358 276.043 144.076 275.747 145.792C275.554 146.934 272.765 147.399 269.178 147.444C264.49 147.482 258.404 146.766 255.011 145.792C250.971 144.573 247.054 142.979 243.309 141.032C243.309 141.032 250.219 85.4718 251.546 84.6009C252.873 83.7301 262.249 82.9947 262.249 82.9947L273.132 83.3753C273.132 83.3753 276.442 82.3819 279.36 81.7497C281.453 81.3046 283.333 81.0273 283.732 81.4272C283.9 81.6014 283.706 84.3494 283.223 88.6004Z" fill="#68E1FD"/>
<path d="M252.847 84.0397C252.847 84.0397 250.271 84.9106 248.951 86.62C247.631 88.3294 237.262 109.197 238.563 113.5C239.864 117.803 244.359 121.002 245.647 120.138C246.935 119.273 249.382 111.333 249.814 109.597C250.245 107.862 251.102 102.153 251.102 102.153L252.847 84.0397Z" fill="#68E1FD"/>
<path d="M295.453 71.506C295.794 75.7828 284.556 94.1867 282.444 98.1861C282.315 98.4184 282.167 98.6506 282.019 98.8828C279.572 102.379 273.866 103.856 273.866 103.856C273.818 103.772 273.783 103.681 273.763 103.585C272.134 99.7149 275.85 88.2004 275.85 88.2004L279.379 81.7497L285.4 70.661L285.638 51.6056C285.638 51.6056 286.147 49.7865 289.277 49.3801C291.048 49.1479 291.891 49.4898 292.316 49.8059C292.483 49.9371 292.609 50.1142 292.677 50.3155C292.677 50.3155 295.073 66.5583 295.453 71.506Z" fill="#68E1FD"/>
<path d="M238.306 230.813C238.306 230.813 236.477 237.734 235.62 238.237C234.764 238.74 231.756 237.147 230.037 235.889C228.317 234.631 228.916 231.941 228.916 231.941L229.67 229.838L238.306 230.813Z" fill="#C48067"/>
<path d="M284.292 227.478C284.292 227.478 287.628 236.889 287.293 237.799C286.959 238.708 282.882 237.366 280.744 237.508C278.606 237.65 277.782 234.328 277.782 234.328L277.022 232.225L284.292 227.478Z" fill="#C48067"/>
<path d="M274.002 78.1761C274.002 78.1761 272.714 83.814 273.132 85.9814C273.551 88.1488 270.106 94.2189 265.778 94.2189C261.45 94.2189 261.45 86.8458 261.45 85.9814C261.45 85.117 262.738 84.6913 262.313 82.5109C261.888 80.3306 273.57 75.5764 274.002 78.1761Z" fill="#C48067"/>
<path d="M262.313 82.5109C262.648 84.1881 261.953 84.8267 261.618 85.4331C262.569 86.3812 263.838 86.942 265.179 87.007C267.755 87.007 271.677 84.8396 273.403 80.9369C273.435 80.8724 273.467 80.795 273.499 80.7241C273.744 79.292 274.002 78.1761 274.002 78.1761C273.57 75.5764 261.882 80.3435 262.313 82.5109Z" fill="#B5765E"/>
<path d="M273.055 85.1493C273.055 85.1493 269.565 93.3352 266.615 94.1802C266.615 94.1802 265.804 94.6124 267.968 95.9155C270.131 97.2185 276.191 90.7098 275.328 85.9427C275.228 85.3388 274.974 84.7709 274.592 84.2932C274.21 83.8155 273.712 83.4439 273.145 83.214L273.055 85.1493Z" fill="white"/>
<path d="M262.313 83.3753C262.313 83.3753 261.354 89.3938 263.782 93.5416C263.782 93.5416 262.745 95.0833 261.882 95.0833C261.019 95.0833 258.849 89.8841 259.718 85.9814C260.22 83.6978 261.882 82.756 262.313 83.3753Z" fill="white"/>
<path d="M275.734 145.818L271.001 183.529L285.722 232.303C285.722 232.303 283.017 233.806 277.389 233.373L257.425 185.148L257.142 154.488L250.651 180.936L238.209 232.496C238.209 232.496 231.872 233.89 228.144 231.206L236.367 180.936L243.29 141.045L275.734 145.818Z" fill="#606161"/>
<path d="M285.716 232.303C285.716 232.303 283.011 233.799 277.395 233.38L257.393 185.135L257.116 154.481L250.638 180.929L238.17 232.535C238.17 232.535 231.859 233.935 228.118 231.245L236.335 180.929L243.264 141.051L269.41 144.876L275.728 145.812L270.994 183.535L285.716 232.303Z" fill="url(#paint20_linear)"/>
<path d="M259.718 65.6036C259.718 65.6036 258.849 76.873 259.718 79.9113C260.587 82.9496 263.176 85.5492 265.778 85.5492C268.38 85.5492 272.269 83.3753 274.002 79.4791C275.734 75.5829 276.578 66.0358 276.165 64.7328C275.753 63.4297 273.119 59.3465 266.209 59.9915C261.45 60.3979 259.718 63.8619 259.718 65.6036Z" fill="#C48067"/>
<path d="M275.637 71.1577C275.245 72.0414 273.866 72.0866 273.171 71.4093C272.853 71.0401 272.623 70.6027 272.501 70.1307C272.378 69.6587 272.365 69.1648 272.463 68.6871C272.585 67.7259 272.913 66.7906 272.971 65.8165C272.993 65.7042 272.991 65.5884 272.964 65.4772C272.937 65.3659 272.887 65.2616 272.817 65.1714C272.728 65.0972 272.625 65.0427 272.514 65.0116C272.403 64.9804 272.287 64.9733 272.173 64.9908C270.885 65.0295 269.333 65.5456 268.418 64.6167C267.871 64.0619 267.71 63.0943 266.982 62.8298C266.37 62.6105 265.739 63.0169 265.166 63.3136C263.803 64.0121 262.226 64.1644 260.755 63.7394C260.444 63.6781 260.167 63.5005 259.982 63.2427C259.883 63.0178 259.856 62.7676 259.905 62.5266C259.998 61.7492 260.257 61.001 260.665 60.3331C261.073 59.6651 261.62 59.0932 262.268 58.6562C263.379 58.0023 264.61 57.581 265.887 57.4177C267.358 57.1521 268.845 56.9797 270.337 56.9016C271.131 56.7973 271.938 56.8995 272.681 57.1984C273.373 57.6499 273.996 58.1996 274.53 58.8304C275.38 59.6238 276.462 60.1786 277.106 61.1397C277.627 61.9267 278.774 61.9009 279.173 63.8103C279.514 65.4811 279.746 67.1711 280.029 68.8483C280.313 70.5255 279.617 72.2608 279.263 73.9315C278.542 77.3568 278.542 77.3568 277.331 78.5244C276.586 79.1661 275.753 79.6983 274.858 80.1048C274.705 80.2122 274.532 80.287 274.35 80.3247C274.167 80.3625 273.978 80.3623 273.796 80.3241C273.441 80.2016 273.306 79.6146 273.654 79.4791" fill="#606161"/>
<path d="M275.637 71.1577C275.245 72.0414 273.866 72.0866 273.171 71.4093C272.853 71.0401 272.623 70.6027 272.501 70.1307C272.378 69.6587 272.365 69.1648 272.463 68.6871C272.585 67.7259 272.913 66.7906 272.971 65.8165C272.993 65.7042 272.991 65.5884 272.964 65.4772C272.937 65.3659 272.887 65.2616 272.817 65.1714C272.728 65.0972 272.625 65.0427 272.514 65.0116C272.403 64.9804 272.287 64.9733 272.173 64.9908C270.885 65.0295 269.333 65.5456 268.418 64.6167C267.871 64.0619 267.71 63.0943 266.982 62.8298C266.37 62.6105 265.739 63.0169 265.166 63.3136C263.803 64.0121 262.226 64.1644 260.755 63.7394C260.444 63.6781 260.167 63.5005 259.982 63.2427C259.883 63.0178 259.856 62.7676 259.905 62.5266C259.998 61.7492 260.257 61.001 260.665 60.3331C261.073 59.6651 261.62 59.0932 262.268 58.6562C263.379 58.0023 264.61 57.581 265.887 57.4177C267.358 57.1521 268.845 56.9797 270.337 56.9016C271.131 56.7973 271.938 56.8995 272.681 57.1984C273.373 57.6499 273.996 58.1996 274.53 58.8304C275.38 59.6238 276.462 60.1786 277.106 61.1397C277.627 61.9267 278.774 61.9009 279.173 63.8103C279.514 65.4811 279.746 67.1711 280.029 68.8483C280.313 70.5255 279.617 72.2608 279.263 73.9315C278.542 77.3568 278.542 77.3568 277.331 78.5244C276.586 79.1661 275.753 79.6983 274.858 80.1048C274.705 80.2122 274.532 80.287 274.35 80.3247C274.167 80.3625 273.978 80.3623 273.796 80.3241C273.441 80.2016 273.306 79.6146 273.654 79.4791" fill="url(#paint21_linear)"/>
<path d="M274.188 72.8929C274.188 72.8929 274.62 70.3126 276.352 71.1577C278.084 72.0027 275.921 76.7956 275.064 77.2278C274.677 77.467 274.231 77.5943 273.776 77.5955" fill="#C48067"/>
<path d="M246.008 120.377C244.849 122.75 242.653 125.079 240.135 123.531C230.256 117.441 220.596 105.314 220.596 105.314C220.627 104.31 220.845 103.321 221.24 102.398C221.643 101.487 222.266 100.69 223.053 100.08C223.84 99.4696 224.766 99.0649 225.748 98.9022L244.501 114.771L246.433 116.442L246.71 116.68C247.148 117.061 246.832 118.732 246.008 120.377Z" fill="#68E1FD"/>
<path d="M246.008 120.377L248.944 94.9027L244.436 122.738L246.008 120.377Z" fill="url(#paint22_linear)"/>
<path d="M221.24 235.567C218.767 236.405 216.23 237.276 214.201 238.928C213.848 239.167 213.59 239.523 213.474 239.934C213.364 240.579 213.931 241.16 214.485 241.534C218.246 244.114 223.133 244.166 227.693 244.114C230.082 244.114 232.703 243.966 234.448 242.34C235.917 240.966 236.38 238.87 236.779 236.902C236.834 236.707 236.847 236.503 236.818 236.302C236.664 235.573 235.678 235.509 234.938 235.528C232.362 235.605 230.868 233.993 228.607 233.522C226.45 233.064 223.275 234.883 221.24 235.567Z" fill="#68E1FD"/>
<path d="M272.662 239.54C270.569 241.114 268.438 242.766 267.027 244.952C266.766 245.289 266.633 245.707 266.654 246.133C266.757 246.778 267.472 247.146 268.116 247.333C272.495 248.623 277.131 247.107 281.465 245.617C283.719 244.843 286.173 243.901 287.319 241.805C288.279 240.044 288.066 237.902 287.828 235.909C287.816 235.707 287.764 235.509 287.673 235.328C287.3 234.683 286.34 234.935 285.645 235.193C283.204 236.076 281.298 235.012 279.005 235.276C276.822 235.522 274.375 238.25 272.662 239.54Z" fill="#68E1FD"/>
<path d="M221.24 235.567C218.767 236.405 216.23 237.276 214.201 238.928C213.848 239.167 213.59 239.523 213.474 239.934C213.364 240.579 213.931 241.16 214.485 241.534C218.246 244.114 223.133 244.166 227.693 244.114C230.082 244.114 232.703 243.966 234.448 242.34C235.917 240.966 236.38 238.87 236.779 236.902C236.834 236.707 236.847 236.503 236.818 236.302C236.664 235.573 235.678 235.509 234.938 235.528C232.362 235.605 230.868 233.993 228.607 233.522C226.45 233.064 223.275 234.883 221.24 235.567Z" fill="url(#paint23_linear)"/>
<path d="M272.662 239.54C270.569 241.114 268.438 242.766 267.027 244.952C266.766 245.289 266.633 245.707 266.654 246.133C266.757 246.778 267.472 247.146 268.116 247.333C272.495 248.623 277.131 247.107 281.465 245.617C283.719 244.843 286.173 243.901 287.319 241.805C288.279 240.044 288.066 237.902 287.828 235.909C287.816 235.707 287.764 235.509 287.673 235.328C287.3 234.683 286.34 234.935 285.645 235.193C283.204 236.076 281.298 235.012 279.005 235.276C276.822 235.522 274.375 238.25 272.662 239.54Z" fill="url(#paint24_linear)"/>
<path d="M295.453 71.506C295.794 75.7828 284.557 94.1867 282.444 98.1861C282.316 98.4184 282.167 98.6506 282.019 98.8828C279.759 117.358 276.043 144.076 275.747 145.792L271.014 183.516L266.899 169.15L269.178 147.444L269.429 144.863C269.429 144.863 272.553 113.848 278.349 97.225C279.282 94.5415 280.281 92.7998 283.243 88.5875C288.253 81.4272 293.366 73.2219 292.722 70.3126C291.544 64.6425 289.264 49.3866 289.264 49.3866L292.304 49.8123C292.471 49.9436 292.596 50.1206 292.664 50.3219C292.664 50.3219 295.073 66.5583 295.453 71.506Z" fill="url(#paint25_linear)"/>
<path d="M247.064 110.688L246.42 116.442L245.975 120.377C244.816 122.75 242.62 125.079 240.102 123.531C230.256 117.441 220.596 105.314 220.596 105.314C220.627 104.31 220.845 103.321 221.24 102.398C222.972 103.985 239.214 119.028 240.527 119.215C241.242 119.319 242.994 117.016 244.494 114.771C245.885 112.7 247.064 110.688 247.064 110.688Z" fill="url(#paint26_linear)"/>
</g>
<defs>
<linearGradient id="paint0_linear" x1="221.491" y1="198.682" x2="206.371" y2="431.394" gradientUnits="userSpaceOnUse">
<stop stop-color="#010101" stop-opacity="0"/>
<stop offset="0.95" stop-color="#010101"/>
</linearGradient>
<linearGradient id="paint1_linear" x1="19617.6" y1="1193.25" x2="19618.1" y2="1759.44" gradientUnits="userSpaceOnUse">
<stop stop-color="#010101" stop-opacity="0"/>
<stop offset="0.95" stop-color="#010101"/>
</linearGradient>
<linearGradient id="paint2_linear" x1="5286.94" y1="16449" x2="4566.02" y2="21456.8" gradientUnits="userSpaceOnUse">
<stop stop-color="#010101" stop-opacity="0"/>
<stop offset="0.95" stop-color="#010101"/>
</linearGradient>
<linearGradient id="paint3_linear" x1="24708.4" y1="2484.85" x2="24724.9" y2="8076.75" gradientUnits="userSpaceOnUse">
<stop stop-color="#010101" stop-opacity="0"/>
<stop offset="0.95" stop-color="#010101"/>
</linearGradient>
<linearGradient id="paint4_linear" x1="13019.3" y1="923.633" x2="36323.4" y2="923.633" gradientUnits="userSpaceOnUse">
<stop stop-color="#010101" stop-opacity="0"/>
<stop offset="0.95" stop-color="#010101"/>
</linearGradient>
<linearGradient id="paint5_linear" x1="19320" y1="729.886" x2="19320.4" y2="1296.08" gradientUnits="userSpaceOnUse">
<stop stop-color="#010101" stop-opacity="0"/>
<stop offset="0.95" stop-color="#010101"/>
</linearGradient>
<linearGradient id="paint6_linear" x1="19320" y1="846.681" x2="19320.4" y2="1412.88" gradientUnits="userSpaceOnUse">
<stop stop-color="#010101" stop-opacity="0"/>
<stop offset="0.95" stop-color="#010101"/>
</linearGradient>
<linearGradient id="paint7_linear" x1="19320" y1="963.471" x2="19320.4" y2="1529.67" gradientUnits="userSpaceOnUse">
<stop stop-color="#010101" stop-opacity="0"/>
<stop offset="0.95" stop-color="#010101"/>
</linearGradient>
<linearGradient id="paint8_linear" x1="19320" y1="1080.26" x2="19320.4" y2="1646.45" gradientUnits="userSpaceOnUse">
<stop stop-color="#010101" stop-opacity="0"/>
<stop offset="0.95" stop-color="#010101"/>
</linearGradient>
<linearGradient id="paint9_linear" x1="1458.38" y1="1981.6" x2="1556.61" y2="1981.6" gradientUnits="userSpaceOnUse">
<stop stop-color="#010101" stop-opacity="0"/>
<stop offset="0.95" stop-color="#010101"/>
</linearGradient>
<linearGradient id="paint10_linear" x1="1921.45" y1="1981.6" x2="2019.53" y2="1981.6" gradientUnits="userSpaceOnUse">
<stop stop-color="#010101" stop-opacity="0"/>
<stop offset="0.95" stop-color="#010101"/>
</linearGradient>
<linearGradient id="paint11_linear" x1="9109.13" y1="4585.65" x2="8758.78" y2="13092" gradientUnits="userSpaceOnUse">
<stop stop-color="#010101" stop-opacity="0"/>
<stop offset="0.95" stop-color="#010101"/>
</linearGradient>
<linearGradient id="paint12_linear" x1="3022.33" y1="1314.71" x2="2927.96" y2="3675.69" gradientUnits="userSpaceOnUse">
<stop stop-color="#010101" stop-opacity="0"/>
<stop offset="0.95" stop-color="#010101"/>
</linearGradient>
<linearGradient id="paint13_linear" x1="2737.11" y1="1273" x2="2645.89" y2="3421.44" gradientUnits="userSpaceOnUse">
<stop stop-color="#010101" stop-opacity="0"/>
<stop offset="0.95" stop-color="#010101"/>
</linearGradient>
<linearGradient id="paint14_linear" x1="2324.23" y1="1277.04" x2="2231.16" y2="3614.41" gradientUnits="userSpaceOnUse">
<stop stop-color="#010101" stop-opacity="0"/>
<stop offset="0.95" stop-color="#010101"/>
</linearGradient>
<linearGradient id="paint15_linear" x1="2149.37" y1="1151.44" x2="2081" y2="2949.46" gradientUnits="userSpaceOnUse">
<stop stop-color="#010101" stop-opacity="0"/>
<stop offset="0.95" stop-color="#010101"/>
</linearGradient>
<linearGradient id="paint16_linear" x1="4011.16" y1="1320.59" x2="3948.74" y2="3686.68" gradientUnits="userSpaceOnUse">
<stop stop-color="#010101" stop-opacity="0"/>
<stop offset="0.95" stop-color="#010101"/>
</linearGradient>
<linearGradient id="paint17_linear" x1="4313.17" y1="1018.98" x2="4231.2" y2="3183.87" gradientUnits="userSpaceOnUse">
<stop stop-color="#010101" stop-opacity="0"/>
<stop offset="0.95" stop-color="#010101"/>
</linearGradient>
<linearGradient id="paint18_linear" x1="6004.74" y1="1395.89" x2="5890.16" y2="4398.44" gradientUnits="userSpaceOnUse">
<stop stop-color="#010101" stop-opacity="0"/>
<stop offset="0.95" stop-color="#010101"/>
</linearGradient>
<linearGradient id="paint19_linear" x1="7928.73" y1="1809.86" x2="7778.99" y2="5728.23" gradientUnits="userSpaceOnUse">
<stop stop-color="#010101" stop-opacity="0"/>
<stop offset="0.95" stop-color="#010101"/>
</linearGradient>
<linearGradient id="paint20_linear" x1="22217.3" y1="35951.8" x2="31035.3" y2="27783.3" gradientUnits="userSpaceOnUse">
<stop stop-color="#010101" stop-opacity="0"/>
<stop offset="0.95" stop-color="#010101"/>
</linearGradient>
<linearGradient id="paint21_linear" x1="8676.57" y1="3861.22" x2="9073.92" y2="3649.2" gradientUnits="userSpaceOnUse">
<stop stop-color="#010101" stop-opacity="0"/>
<stop offset="0.95" stop-color="#010101"/>
</linearGradient>
<linearGradient id="paint22_linear" x1="1950.14" y1="4770.03" x2="2230.1" y2="4777.13" gradientUnits="userSpaceOnUse">
<stop stop-color="#010101" stop-opacity="0"/>
<stop offset="0.95" stop-color="#010101"/>
</linearGradient>
<linearGradient id="paint23_linear" x1="8260.97" y1="4294.26" x2="8395.73" y2="6131.5" gradientUnits="userSpaceOnUse">
<stop stop-color="#010101" stop-opacity="0"/>
<stop offset="0.95" stop-color="#010101"/>
</linearGradient>
<linearGradient id="paint24_linear" x1="9299.37" y1="4979.94" x2="9513.66" y2="7191.22" gradientUnits="userSpaceOnUse">
<stop stop-color="#010101" stop-opacity="0"/>
<stop offset="0.95" stop-color="#010101"/>
</linearGradient>
<linearGradient id="paint25_linear" x1="11207.2" y1="31007.8" x2="19311.1" y2="31095.1" gradientUnits="userSpaceOnUse">
<stop stop-color="#010101" stop-opacity="0"/>
<stop offset="0.95" stop-color="#010101"/>
</linearGradient>
<linearGradient id="paint26_linear" x1="8204.02" y1="4980.71" x2="16656.3" y2="5503.69" gradientUnits="userSpaceOnUse">
<stop stop-color="#010101" stop-opacity="0"/>
<stop offset="0.95" stop-color="#010101"/>
</linearGradient>
<clipPath id="clip0">
<rect width="363" height="274" fill="white"/>
</clipPath>
</defs>
</svg>
