<svg width="365" height="253" viewBox="0 0 365 253" fill="none" xmlns="http://www.w3.org/2000/svg">
<g clip-path="url(#clip0)">
<path d="M157.94 13.25C155.09 14.57 152.29 16 149.54 17.57C117.39 35.87 94.89 70.22 59.69 81.63C50.16 84.72 39.93 85.57 32.23 92.33C26.6743 97.4002 21.8394 103.207 17.86 109.59C9.44591 122.815 3.86198 137.64 1.45999 153.13C-3.35001 183.13 3.37999 216.91 27.25 237.46C45.19 252.92 71.89 253.7 94.36 249.52C107.25 247.13 119.6 242.47 132.36 239.4C154.669 234.054 177.875 233.641 200.36 238.19C215.19 241.19 229.52 246.36 244.36 249.53C255.02 251.82 266.12 253.09 277 251.68C287.44 250.33 295.49 245.35 305 241.33C323.09 233.66 341.4 223.88 352.93 207.39C361.799 194.468 365.897 178.863 364.52 163.25C363.02 147.661 356.64 132.943 346.29 121.19C341.7 115.91 335.7 111.25 333.46 104.53C331.22 97.81 330.87 89.97 330.17 83.08C328.65 67.97 326.83 52.43 319.47 39.15C311.29 24.39 296.8 13.82 280.99 7.86999C265.18 1.91999 248.09 0.219989 231.2 0.0199894C206.19 -0.230011 180.52 2.76999 157.94 13.25Z" fill="white"/>
<path d="M324.77 145.02L307.77 157.02L232.29 210.05C226.493 214.227 220.456 218.06 214.21 221.53C209.12 224.28 206.21 229.53 200.05 230.93C196.991 231.462 193.859 231.407 190.82 230.77C185.851 229.961 180.963 228.72 176.21 227.06C175.63 226.86 174.8 226.74 174.54 227.3C174.28 227.86 175.68 227.8 175.19 227.42C130.94 221.42 88.66 205.42 44.81 197.02C44.3005 196.926 43.8355 196.668 43.485 196.287C43.1346 195.905 42.9176 195.42 42.8668 194.904C42.816 194.389 42.9342 193.87 43.2035 193.428C43.4729 192.985 43.8787 192.642 44.36 192.45C47.89 191.01 51.74 190.45 55.63 189.69C62.63 188.4 69.53 187.14 76.51 186C90.5775 183.563 104.781 181.987 119.04 181.28C142.72 180.28 166.62 182.81 190.04 179.14C212.29 175.66 233.23 166.77 253.93 157.87C258.93 155.73 264.02 153.51 267.93 149.75C271 146.8 273.46 142.91 277.37 140.97C281.43 138.97 286.37 139.32 290.73 139.52C302.23 140.03 313.59 142.37 324.77 145.02Z" fill="url(#paint0_linear)"/>
<path d="M46.73 182.13L145.57 139.13C147.711 138.056 150.127 137.655 152.5 137.98L274.75 148.37C277.09 148.7 276.67 158.76 274.75 160.37L202.55 221.83C200.375 223.75 197.772 225.12 194.959 225.826C192.145 226.533 189.204 226.555 186.38 225.89L47.6 192.14C45.83 191.71 45.07 182.95 46.73 182.13Z" fill="#68E1FD"/>
<path d="M46.73 182.13L145.57 139.13C147.711 138.056 150.127 137.655 152.5 137.98L274.75 148.37C277.09 148.7 276.67 158.76 274.75 160.37L202.55 221.83C200.375 223.75 197.772 225.12 194.959 225.826C192.145 226.533 189.204 226.555 186.38 225.89L47.6 192.14C45.83 191.71 45.07 182.95 46.73 182.13Z" fill="url(#paint1_linear)"/>
<path d="M274.78 153.24L202.58 214.7C200.407 216.623 197.804 217.996 194.991 218.704C192.177 219.412 189.234 219.435 186.41 218.77L47.6 185.01C45.83 184.58 45.6 181.78 47.25 180.95L85.29 159.48L95.29 153.86L125.7 136.77C127.841 135.695 130.257 135.294 132.63 135.62L273.55 147.88C275.89 148.16 276.67 151.63 274.78 153.24Z" fill="#68E1FD"/>
<path d="M132.62 138.97L261.43 158.02L221.78 190.22L89.59 163.47L132.62 138.97Z" fill="url(#paint2_linear)"/>
<path d="M262.99 161.5C262.61 162.65 261.36 163.24 260.23 163.69C251.992 166.78 243.593 169.424 235.07 171.61C226.98 173.84 218.54 176.09 210.28 174.61C209.243 174.34 208.167 174.252 207.1 174.35C205.34 174.67 204.04 176.1 202.67 177.23C195.84 182.85 185.86 181.57 177.16 179.99C177.536 177.122 177.723 174.233 177.72 171.34C154.45 171.758 131.188 170.172 108.19 166.6C103.19 165.83 89.68 165.22 86.27 161.07C85.8485 160.612 85.5101 160.084 85.27 159.51L95.27 153.89C95.7231 153.91 96.1726 153.98 96.61 154.1C123.218 161.479 150.873 164.352 178.43 162.6C179.14 159.01 175.43 154.52 178.25 152.14C179.178 151.48 180.302 151.152 181.44 151.21C185.662 151.046 189.859 151.925 193.66 153.77C195.91 154.87 198.03 156.31 200.46 156.93C202.838 157.402 205.277 157.48 207.68 157.16C223.022 156.012 238.416 155.718 253.79 156.28C256.32 156.37 258.97 156.52 261.12 157.85C262.38 158.61 263.47 160.09 262.99 161.5Z" fill="url(#paint3_linear)"/>
<path d="M119.14 171.45L172.22 182.18L144.77 204.57L89.59 192.19L119.14 171.45Z" fill="url(#paint4_linear)"/>
<path d="M92.6 196.07C93.1428 197.16 93.9112 198.123 94.8542 198.893C95.7973 199.664 96.8935 200.225 98.07 200.54C101.97 201.48 124.7 207.3 124.7 207.3C124.7 207.3 128.4 207.74 130.45 205.3L92.6 196.07Z" fill="url(#paint5_linear)"/>
<path d="M128.58 135.56L273.96 156.25C275.026 156.398 276.108 156.134 276.985 155.512C277.862 154.889 278.469 153.955 278.68 152.9L299.42 48.17C299.642 47.0523 299.626 45.9003 299.373 44.7891C299.12 43.678 298.636 42.6326 297.952 41.7212C297.268 40.8098 296.399 40.0527 295.403 39.4994C294.407 38.9461 293.305 38.609 292.17 38.51L148.6 25.92C146.487 25.7349 144.386 26.385 142.746 27.7309C141.107 29.0768 140.06 31.0114 139.83 33.12L128.58 135.56Z" fill="#68E1FD"/>
<path d="M128.58 135.56L273.58 156.19C274.751 156.356 275.942 156.067 276.907 155.383C277.872 154.698 278.539 153.67 278.77 152.51L299.42 48.17C299.642 47.0523 299.626 45.9003 299.373 44.7891C299.12 43.678 298.636 42.6326 297.952 41.7212C297.268 40.8098 296.399 40.0527 295.403 39.4994C294.407 38.9461 293.305 38.609 292.17 38.51L148.6 25.92C146.487 25.7349 144.386 26.385 142.746 27.7309C141.107 29.0768 140.06 31.0114 139.83 33.12L128.58 135.56Z" fill="url(#paint6_linear)"/>
<path d="M271.33 150.23L291.98 44.56L145.57 31.04L133.93 131.09L271.33 150.23Z" fill="white"/>
<path d="M259.29 63.77L156.6 53.08L158.93 40.08L261.65 50.77C262.518 50.8263 263.365 51.0643 264.135 51.4687C264.905 51.873 265.582 52.4347 266.121 53.1172C266.66 53.7998 267.05 54.5881 267.265 55.4309C267.48 56.2738 267.516 57.1525 267.37 58.01C266.976 59.8004 265.931 61.3808 264.438 62.445C262.946 63.5091 261.111 63.9813 259.29 63.77Z" fill="#68E1FD"/>
<path opacity="0.56" d="M156.6 53.08L239.55 61.73L241.88 48.69L158.93 40.03L156.6 53.08Z" fill="white"/>
<path d="M254.3 58.6951C256.053 58.0092 256.965 56.148 256.335 54.5381C255.706 52.9282 253.773 52.1792 252.02 52.8651C250.266 53.5511 249.354 55.4122 249.984 57.0221C250.613 58.632 252.546 59.3811 254.3 58.6951Z" stroke="white" stroke-width="1.04" stroke-miterlimit="10"/>
<path d="M255.29 61.19C255.22 61.02 254.35 58.65 254.35 58.65" stroke="white" stroke-width="1.04" stroke-miterlimit="10"/>
<path opacity="0.18" d="M258.3 82.59L153.5 71.37L154.05 69.65L258.84 80.87L258.3 82.59Z" fill="#68E1FD"/>
<path opacity="0.18" d="M190.76 68.83L155.37 64.64L156.09 61.56L191.49 65.42L190.76 68.83Z" fill="#68E1FD"/>
<path opacity="0.18" d="M257 89.52L152.2 78.3L152.74 76.58L257.54 87.8L257 89.52Z" fill="#68E1FD"/>
<g opacity="0.66">
<path opacity="0.18" d="M185.13 96.51L149.74 92.33L150.46 89.24L185.86 93.1L185.13 96.51Z" fill="#68E1FD"/>
<path opacity="0.18" d="M252.39 110.89L147.59 99.67L148.14 97.94L252.94 109.17L252.39 110.89Z" fill="#68E1FD"/>
<path opacity="0.18" d="M250 118.91L145.2 107.69L145.75 105.97L250.54 117.19L250 118.91Z" fill="#68E1FD"/>
</g>
<path opacity="0.18" d="M247.97 136.24L143.28 122.57L143.82 120.86L248.51 134.53L247.97 136.24Z" fill="#68E1FD"/>
<path d="M189.88 126.14C189.88 126.14 82.78 161.6 68.14 129.77C53.5 97.94 133.67 89.22 133.67 89.22C133.67 89.22 39.99 98.55 61.01 137.87C82.03 177.19 196.27 138.31 196.27 138.31L189.88 126.14Z" fill="white"/>
<path d="M190.13 124.67C190.175 126.127 190.573 127.551 191.29 128.82L193.93 134.46C194.493 135.863 195.283 137.164 196.27 138.31C197.043 139.091 197.989 139.679 199.031 140.026C200.074 140.374 201.183 140.471 202.27 140.31C202.783 140.276 203.278 140.111 203.709 139.831C204.14 139.551 204.491 139.165 204.73 138.71C205.18 137.54 204.42 136.29 203.81 135.2C202.17 132.27 201.47 128.93 200.69 125.67C200.09 123.13 198.87 119.55 195.77 119.19C193.03 118.87 190.29 122 190.13 124.67Z" fill="#68E1FD"/>
<path d="M217.03 111.53C217.03 111.53 194.37 90.8 172.22 111.53C172.22 111.53 189.34 109.32 194.62 118.75L217.03 111.53Z" fill="#68E1FD"/>
<path d="M226.29 130.48C226.29 130.48 225.21 161.18 194.9 162.48C194.9 162.48 208.47 151.81 205.44 141.43L226.29 130.48Z" fill="#68E1FD"/>
<path d="M194.62 118.77C194.62 118.77 266.07 77.77 306.24 84.33C306.24 84.33 297.16 113.85 205.41 141.43L194.62 118.77Z" fill="white"/>
<path d="M306.29 84.31C306.29 84.31 297.21 113.83 205.46 141.41L202.19 134.54L194.62 118.77C194.62 118.77 258.04 82.33 298.97 83.63C301.422 83.6966 303.867 83.9238 306.29 84.31Z" fill="url(#paint7_linear)"/>
<path d="M306.29 84.31C299.94 92.64 278.02 107.99 232.96 124.36C230.413 125.293 227.79 126.227 225.09 127.16C217.99 129.613 210.357 132.073 202.19 134.54L194.63 118.77C194.63 118.77 202.44 114.08 214.38 108.12C220.68 104.97 228.13 101.47 236.19 98.12C258.68 88.77 285.94 80.52 306.29 84.31Z" fill="white"/>
<path d="M251.23 99.62C247.42 101.21 243.14 100.95 239.02 101.22C237.795 101.269 236.58 101.46 235.4 101.79C233.07 102.692 230.945 104.052 229.15 105.79C228.906 105.957 228.724 106.2 228.63 106.48C228.603 106.771 228.673 107.063 228.83 107.31C229.742 109.169 230.792 110.957 231.97 112.66C233.37 114.66 235.02 116.79 234.97 119.25C234.828 121.134 234.097 122.925 232.88 124.37L232.58 124.79C231.137 126.732 229.571 128.58 227.89 130.32C226.65 131.6 227.45 135.51 224.45 134.57C221.84 133.76 223.11 130.66 224 129.03L225 127.17L226.68 124.06C227.96 121.71 229.26 118.92 228.18 116.47C227.42 114.76 225.67 113.73 224.03 112.81C220.935 110.975 217.69 109.407 214.33 108.12C220.63 104.97 228.08 101.47 236.14 98.12C241.402 98.5616 246.688 98.6385 251.96 98.35C252.4 98.77 251.78 99.39 251.23 99.62Z" fill="url(#paint8_linear)"/>
<path d="M242.33 117.28C246.87 117.28 250.55 113.6 250.55 109.06C250.55 104.52 246.87 100.84 242.33 100.84C237.79 100.84 234.11 104.52 234.11 109.06C234.11 113.6 237.79 117.28 242.33 117.28Z" fill="#68E1FD"/>
<path d="M242.33 114.38C245.423 114.38 247.93 111.873 247.93 108.78C247.93 105.687 245.423 103.18 242.33 103.18C239.237 103.18 236.73 105.687 236.73 108.78C236.73 111.873 239.237 114.38 242.33 114.38Z" fill="url(#paint9_linear)"/>
<path d="M230.04 91.16C230.04 91.21 228.86 91.01 228.89 91.07C229.16 91.3878 229.503 91.635 229.89 91.79C231.305 92.3612 232.754 92.8422 234.23 93.23C235.7 93.38 236.41 91.99 236.87 90.82C237.24 89.88 237.62 88.94 238.01 88.01C238.309 87.4119 238.499 86.765 238.57 86.1C238.585 85.9474 238.564 85.7934 238.51 85.65C238.415 85.4656 238.254 85.3232 238.06 85.25C237.765 85.1299 237.435 85.1299 237.14 85.25C236.6 85.48 236.35 86.09 236.08 86.61C235.45 87.8 234.46 88.77 233.92 90C233.516 90.0253 233.118 89.8927 232.81 89.63L231.06 88.49C230.976 88.423 230.876 88.3783 230.77 88.36C230.684 88.3556 230.597 88.3724 230.519 88.409C230.44 88.4456 230.372 88.5009 230.32 88.57C230.005 88.9499 229.817 89.4182 229.78 89.91C229.73 90.1609 229.73 90.4191 229.78 90.67C229.842 90.8451 229.93 91.0101 230.04 91.16Z" fill="#FCAB9A"/>
<path d="M231.39 88.44L232.01 88.82C232.1 88.82 232.19 88.92 232.22 89.02C232.24 89.092 232.24 89.168 232.22 89.24L231.81 91.06C231.685 91.8747 231.392 92.6546 230.95 93.35C230.71 93.68 228.95 92.46 228.65 92.3C227.902 91.8032 227.248 91.1767 226.72 90.45C226.476 90.154 226.289 89.8148 226.17 89.45C225.99 88.5275 226.131 87.571 226.57 86.74C227.27 85.37 228.45 86.05 229.34 86.89C229.973 87.4697 230.66 87.9887 231.39 88.44Z" fill="#68E1FD"/>
<path d="M220.1 133.86C220.13 133.991 220.2 134.11 220.3 134.2C221.726 135.591 223.425 136.67 225.29 137.37C225.403 137.433 225.53 137.468 225.66 137.47C225.784 137.444 225.895 137.374 225.972 137.273C226.049 137.172 226.087 137.047 226.08 136.92C226.055 136.667 225.962 136.425 225.81 136.22C225.443 135.639 225.032 135.088 224.58 134.57C224.159 134.222 223.89 133.723 223.83 133.18C223.869 132.909 223.94 132.644 224.04 132.39C224.34 131.26 222.46 131.03 221.67 131.3C221.223 131.571 220.848 131.944 220.575 132.39C220.302 132.835 220.139 133.339 220.1 133.86Z" fill="#FCAB9A"/>
<path d="M215.5 102.1C215.5 102.1 212.09 106.86 215.6 111.1C218.03 114.04 221.68 116.04 225.04 117.72C225.63 118.02 226.33 118.26 226.9 118.62C228.01 119.32 227.33 119.91 226.74 120.84C225.26 123.22 223.767 125.583 222.26 127.93C221.389 129.118 220.792 130.484 220.51 131.93L224.32 133.09C226.373 129.591 228.714 126.269 231.32 123.16C232.45 121.82 233.91 120.16 233.7 118.3C233.437 116.578 232.679 114.97 231.52 113.67L224.39 105.39L215.5 102.1Z" fill="#473F47"/>
<path d="M232.06 79.35C232.18 79.7 232.52 79.98 232.57 80.35C232.62 80.72 232.24 81.16 231.99 81.57C231.74 81.98 231.57 82.77 231.23 83.32C231.169 83.441 231.071 83.5392 230.95 83.6C230.841 83.6395 230.726 83.6598 230.61 83.66C230.155 83.647 229.705 83.573 229.27 83.44C229.193 83.3908 229.101 83.3696 229.01 83.38C228.934 83.4248 228.877 83.496 228.85 83.58C228.341 84.632 228.098 85.7923 228.14 86.96C228.14 87.34 228.14 87.82 227.83 88.01C227.718 88.0836 227.584 88.1187 227.45 88.11C226.57 88.11 225.9 87.32 225.45 86.54C225.082 85.8388 224.797 85.0972 224.6 84.33C224.529 84.1074 224.501 83.873 224.52 83.64C224.566 83.3686 224.661 83.1078 224.8 82.87C225.244 82.0035 225.602 81.0959 225.87 80.16C226.103 78.9339 226.521 77.7504 227.11 76.65C227.339 76.3004 227.671 76.0312 228.06 75.88C228.505 75.7828 228.968 75.807 229.4 75.95C230.303 76.0948 231.116 76.5818 231.67 77.31C231.84 77.57 231.92 78.9 232.06 79.35Z" fill="#FCAB9A"/>
<path d="M223.29 106.01C222.526 106.132 221.745 106.087 221 105.88C219.908 105.661 218.79 105.597 217.68 105.69C217.021 105.855 216.375 106.073 215.75 106.34C215.243 106.476 214.712 106.502 214.194 106.414C213.676 106.325 213.184 106.126 212.75 105.83C212.75 105.68 212.75 105.52 212.75 105.37C212.9 104.03 212.34 102.13 212.75 100.84C214.22 95.69 215.47 91.84 218.4 87.42C219.24 86.15 222.55 84.52 223.91 83.84C224.219 83.6739 224.56 83.5751 224.91 83.55C225.313 83.5664 225.707 83.6759 226.06 83.87C227.27 84.46 227.74 85.56 228.33 86.7C229.017 87.8614 229.485 89.1393 229.71 90.47C229.86 92.19 230.47 93.8 229.49 95.4C228.14 97.65 225.9 99.17 224.65 101.6C224.428 101.951 224.304 102.355 224.29 102.77C224.29 103.35 224.7 103.88 224.7 104.46C224.659 104.834 224.501 105.186 224.247 105.464C223.994 105.743 223.659 105.934 223.29 106.01Z" fill="#68E1FD"/>
<path d="M231 97.9C231.48 98.12 232 98.31 232.41 98.47C234.76 99.2189 237.197 99.6625 239.66 99.79C242.758 100.181 245.89 100.238 249 99.96C250.27 99.8626 251.502 99.4761 252.6 98.83C252.92 98.62 253.25 98.24 253.09 97.89C252.997 97.734 252.857 97.6115 252.69 97.54C251.489 96.9064 250.134 96.6223 248.78 96.72C248.78 96.25 248.66 95.65 248.2 95.61C247.74 95.57 247.47 96.2 247.2 96.61C246.6 97.61 245.2 97.72 244.08 97.71C241.491 97.748 238.907 97.4828 236.38 96.92C235.113 96.6178 233.885 96.1716 232.72 95.59C231.97 95.21 230.46 93.64 229.72 94.48C228.98 95.32 228.29 95.88 229.29 96.77C229.799 97.2312 230.376 97.6122 231 97.9Z" fill="#FCAB9A"/>
<path d="M227.1 88.25C227.1 88.25 231.02 93.78 231.59 94.11C232.16 94.44 228.07 98.46 228.07 98.46C228.07 98.46 223.33 93.33 222.78 90.71C222.23 88.09 224.68 86.29 227.1 88.25Z" fill="#68E1FD"/>
<path d="M231.64 76.77C231.472 77.0002 231.258 77.1934 231.012 77.3379C230.766 77.4824 230.493 77.575 230.21 77.61C229.717 77.6885 229.219 77.7319 228.72 77.74C228.72 77.74 228.63 77.74 228.6 77.74C228.582 77.7603 228.568 77.7841 228.56 77.8098C228.551 77.8356 228.548 77.8629 228.55 77.89C228.529 78.2741 228.43 78.6497 228.257 78.9938C228.085 79.3378 227.845 79.6428 227.55 79.89C227.472 79.9386 227.41 80.0078 227.37 80.09C227.33 80.2066 227.33 80.3334 227.37 80.45C227.44 80.8503 227.44 81.2597 227.37 81.66C227.313 82.0665 227.123 82.4427 226.83 82.73C226.757 82.7804 226.704 82.8546 226.68 82.94C226.68 83.0143 226.7 83.0871 226.74 83.15C226.878 83.5679 226.849 84.0227 226.66 84.42C226.284 84.1314 225.848 83.9297 225.385 83.8294C224.922 83.7292 224.442 83.7328 223.98 83.84C223.699 83.8641 223.433 83.9761 223.22 84.16C221.88 85.57 220.78 87.24 219.37 88.6C218.77 89.18 218.1 89.69 217.54 90.32C216.696 91.35 216.02 92.5078 215.54 93.75C215.173 94.7236 214.686 95.6474 214.09 96.5C213.79 96.9237 213.41 97.2841 212.971 97.5604C212.531 97.8367 212.042 98.0235 211.53 98.11C211.046 98.1499 210.558 98.0887 210.098 97.9304C209.639 97.772 209.217 97.5199 208.86 97.19C208.236 96.6177 207.79 95.8771 207.577 95.0573C207.364 94.2376 207.393 93.3738 207.66 92.57C207.79 92.321 207.826 92.0332 207.76 91.76C207.682 91.6088 207.573 91.4759 207.44 91.37C206.827 90.7313 206.485 89.8803 206.485 88.995C206.485 88.1097 206.827 87.2587 207.44 86.62C208.11 85.99 209.72 85.38 209.81 84.34C209.9 83.3 208.97 82.27 209.35 81.07C209.488 80.7051 209.687 80.3668 209.94 80.07C210.422 79.3617 211.076 78.7872 211.84 78.4C212.613 78.1394 213.424 78.0077 214.24 78.01C216.86 77.83 219.6 77.01 221.33 75.01C221.719 74.4918 222.147 74.0037 222.61 73.55C223.153 73.1303 223.77 72.8181 224.43 72.63C226.017 72.023 227.767 71.9982 229.37 72.56C229.927 72.7926 230.424 73.1482 230.824 73.6002C231.224 74.0522 231.517 74.5889 231.68 75.17C231.788 75.424 231.841 75.6983 231.834 75.9743C231.827 76.2504 231.761 76.5217 231.64 76.77Z" fill="#FC682D"/>
<path d="M231.35 81.1C230.965 81.087 230.581 81.0536 230.2 81C230.09 81.21 230.59 82 230.7 82.06C230.753 82.1057 230.82 82.1309 230.89 82.1309C230.96 82.1309 231.027 82.1057 231.08 82.06C231.124 81.9969 231.155 81.9254 231.17 81.85L231.35 81.09" fill="white"/>
<path d="M230.45 79.4C230.616 79.4 230.75 79.2657 230.75 79.1C230.75 78.9343 230.616 78.8 230.45 78.8C230.284 78.8 230.15 78.9343 230.15 79.1C230.15 79.2657 230.284 79.4 230.45 79.4Z" fill="#231F20"/>
<path d="M237.594 82.8816L237.161 82.7993C236.89 82.7477 236.628 82.9257 236.577 83.197L236.027 86.0851C235.975 86.3564 236.153 86.6182 236.424 86.6698L236.857 86.7521C237.128 86.8037 237.39 86.6257 237.441 86.3544L237.991 83.4663C238.043 83.1951 237.865 82.9333 237.594 82.8816Z" fill="#68E1FD"/>
<path d="M236.72 83.12C236.457 83.1479 236.207 83.2476 235.997 83.4081C235.787 83.5686 235.626 83.7837 235.53 84.03C235.447 84.3507 235.464 84.689 235.579 84.9999C235.693 85.3107 235.899 85.5793 236.17 85.77C236.72 86.139 237.351 86.369 238.01 86.44C238.106 86.473 238.209 86.4829 238.31 86.469C238.41 86.4551 238.506 86.4178 238.59 86.36C238.676 86.2652 238.732 86.1468 238.75 86.02C238.907 85.5744 238.972 85.1014 238.94 84.63C238.803 84.1597 238.506 83.7519 238.101 83.4764C237.696 83.2008 237.208 83.0749 236.72 83.12Z" fill="#FCAB9A"/>
<path d="M234.9 80.97L234.8 82.11C234.767 82.2611 234.795 82.419 234.877 82.55C234.959 82.6809 235.09 82.7743 235.24 82.81C237.156 82.9443 239.031 83.4325 240.77 84.25C241.713 84.7804 242.609 85.3893 243.45 86.07C243.79 86.34 244.28 86.07 244.36 85.49L245.25 79.49C245.33 78.96 244.95 78.59 244.55 78.79C242.88 79.64 239.13 81.2 235.66 80.24C235.29 80.15 234.94 80.5 234.9 80.97Z" fill="#68E1FD"/>
<path d="M220.34 132.63C219.861 132.938 219.507 133.406 219.34 133.95C219.285 134.119 219.285 134.301 219.34 134.47C219.41 134.62 219.517 134.751 219.65 134.85C221.249 136.274 223.048 137.457 224.99 138.36C225.236 138.486 225.504 138.564 225.78 138.59C225.917 138.605 226.055 138.585 226.181 138.531C226.307 138.476 226.417 138.39 226.5 138.28C226.595 138.12 226.644 137.936 226.64 137.75C226.651 137.407 226.592 137.065 226.468 136.745C226.343 136.425 226.155 136.133 225.915 135.888C225.675 135.642 225.388 135.448 225.071 135.316C224.754 135.184 224.413 135.117 224.07 135.12C223.824 135.14 223.576 135.14 223.33 135.12C223.1 135.061 222.882 134.96 222.69 134.82C222.165 134.514 221.669 134.159 221.21 133.76C220.9 133.399 220.61 133.022 220.34 132.63Z" fill="#473F47"/>
</g>
<defs>
<linearGradient id="paint0_linear" x1="-107.04" y1="-47.07" x2="643.8" y2="514.49" gradientUnits="userSpaceOnUse">
<stop offset="0.01"/>
<stop offset="0.08" stop-opacity="0.69"/>
<stop offset="0.21" stop-opacity="0.32"/>
<stop offset="1" stop-opacity="0"/>
</linearGradient>
<linearGradient id="paint1_linear" x1="39074.4" y1="14177.1" x2="41950.1" y2="37966.1" gradientUnits="userSpaceOnUse">
<stop offset="0.01"/>
<stop offset="0.08" stop-opacity="0.69"/>
<stop offset="0.21" stop-opacity="0.32"/>
<stop offset="1" stop-opacity="0"/>
</linearGradient>
<linearGradient id="paint2_linear" x1="32548.4" y1="3741.33" x2="31803.8" y2="20620.3" gradientUnits="userSpaceOnUse">
<stop offset="0.01"/>
<stop offset="0.08" stop-opacity="0.69"/>
<stop offset="0.21" stop-opacity="0.32"/>
<stop offset="1" stop-opacity="0"/>
</linearGradient>
<linearGradient id="paint3_linear" x1="32291.3" y1="3736.5" x2="32597.2" y2="12073.7" gradientUnits="userSpaceOnUse">
<stop offset="0.01"/>
<stop offset="0.08" stop-opacity="0.69"/>
<stop offset="0.21" stop-opacity="0.32"/>
<stop offset="1" stop-opacity="0"/>
</linearGradient>
<linearGradient id="paint4_linear" x1="11783.4" y1="3994.82" x2="11285.8" y2="12386.6" gradientUnits="userSpaceOnUse">
<stop offset="0.01"/>
<stop offset="0.08" stop-opacity="0.69"/>
<stop offset="0.21" stop-opacity="0.32"/>
<stop offset="1" stop-opacity="0"/>
</linearGradient>
<linearGradient id="paint5_linear" x1="5415.82" y1="2792.39" x2="5341.31" y2="3436.69" gradientUnits="userSpaceOnUse">
<stop offset="0.01"/>
<stop offset="0.08" stop-opacity="0.69"/>
<stop offset="0.21" stop-opacity="0.32"/>
<stop offset="1" stop-opacity="0"/>
</linearGradient>
<linearGradient id="paint6_linear" x1="38990.7" y1="4120.08" x2="47373.6" y2="100163" gradientUnits="userSpaceOnUse">
<stop offset="0.01"/>
<stop offset="0.08" stop-opacity="0.69"/>
<stop offset="0.21" stop-opacity="0.32"/>
<stop offset="1" stop-opacity="0"/>
</linearGradient>
<linearGradient id="paint7_linear" x1="30388" y1="6988.32" x2="31125.9" y2="13964.1" gradientUnits="userSpaceOnUse">
<stop offset="0.01"/>
<stop offset="0.08" stop-opacity="0.69"/>
<stop offset="0.21" stop-opacity="0.32"/>
<stop offset="1" stop-opacity="0"/>
</linearGradient>
<linearGradient id="paint8_linear" x1="8352.74" y1="5979.93" x2="13386" y2="5577.58" gradientUnits="userSpaceOnUse">
<stop offset="0.01"/>
<stop offset="0.08" stop-opacity="0.69"/>
<stop offset="0.21" stop-opacity="0.32"/>
<stop offset="1" stop-opacity="0"/>
</linearGradient>
<linearGradient id="paint9_linear" x1="2576.63" y1="993.58" x2="3939" y2="2187.72" gradientUnits="userSpaceOnUse">
<stop offset="0.01"/>
<stop offset="0.08" stop-opacity="0.69"/>
<stop offset="0.21" stop-opacity="0.32"/>
<stop offset="1" stop-opacity="0"/>
</linearGradient>
<clipPath id="clip0">
<rect width="364.7" height="252.27" fill="white"/>
</clipPath>
</defs>
</svg>
