<svg width="58" height="58" viewBox="0 0 58 58" fill="none" xmlns="http://www.w3.org/2000/svg">
<path d="M29 4.83331C15.66 4.83331 4.83333 15.66 4.83333 29C4.83333 42.34 15.66 53.1666 29 53.1666C42.34 53.1666 53.1667 42.34 53.1667 29C53.1667 15.66 42.34 4.83331 29 4.83331ZM29 12.0833C33.0117 12.0833 36.25 15.3216 36.25 19.3333C36.25 23.345 33.0117 26.5833 29 26.5833C24.9883 26.5833 21.75 23.345 21.75 19.3333C21.75 15.3216 24.9883 12.0833 29 12.0833ZM29 46.4C22.9583 46.4 17.6175 43.3066 14.5 38.6183C14.5725 33.8091 24.1667 31.175 29 31.175C33.8092 31.175 43.4275 33.8091 43.5 38.6183C40.3825 43.3066 35.0417 46.4 29 46.4Z" fill="white"/>
</svg>
